<svg id="svg" version="1.1" width="400" height="399.62894248608535" viewBox="0 0 400 399.62894248608535" xmlns="http://www.w3.org/2000/svg" xmlns:xlink="http://www.w3.org/1999/xlink" ><g id="svgg"><path id="path0" d="M0.000 199.814 L 0.000 399.629 200.000 399.629 L 400.000 399.629 400.000 199.814 L 400.000 0.000 200.000 0.000 L 0.000 0.000 0.000 199.814 M210.019 15.225 C 292.042 22.458,341.049 114.277,301.206 186.073 L 299.566 189.030 303.865 191.419 C 343.689 213.551,371.387 247.487,381.114 286.069 C 381.910 289.223,382.560 292.103,382.560 292.469 C 382.560 292.962,382.850 293.135,383.673 293.135 L 384.787 293.135 384.787 339.518 L 384.787 385.900 199.258 385.900 L 13.729 385.900 13.729 339.518 L 13.729 293.135 14.778 293.135 C 15.772 293.135,15.850 293.014,16.256 290.810 C 18.328 279.562,24.318 264.007,31.148 252.134 C 45.088 227.902,69.380 204.831,96.015 190.526 C 97.497 189.730,98.666 188.988,98.613 188.877 C 98.559 188.766,97.305 186.308,95.826 183.416 C 54.343 102.330,118.936 7.193,210.019 15.225 M191.466 38.448 C 150.140 43.468,118.892 69.963,109.465 107.978 C 90.493 184.478,169.140 248.350,239.889 213.899 C 304.286 182.540,309.756 93.179,249.722 53.254 C 233.639 42.559,209.059 36.311,191.466 38.448 M105.751 210.505 C 97.936 214.688,97.138 215.162,90.471 219.580 C 59.736 239.948,40.518 268.983,37.505 299.601 C 37.257 302.114,37.106 314.910,37.106 333.274 L 37.106 362.894 199.258 362.894 L 361.410 362.894 361.409 334.972 C 361.408 300.529,361.155 296.531,358.254 285.158 C 350.544 254.930,326.381 227.622,291.620 209.851 L 286.642 207.306 281.072 212.837 C 235.581 258.005,163.654 258.281,117.959 213.463 C 114.570 210.140,111.732 207.422,111.651 207.424 C 111.569 207.425,108.915 208.811,105.751 210.505 " stroke="none" fill="#ffffff" fill-rule="evenodd"></path><path id="path1" d="M193.878 15.066 C 177.121 16.353,165.042 19.219,152.319 24.928 C 90.561 52.640,65.317 126.396,97.269 185.770 L 99.097 189.166 95.838 190.936 C 55.018 213.101,25.798 249.435,16.935 289.054 C 16.096 292.803,16.022 292.957,14.989 293.139 L 13.915 293.328 13.915 339.521 L 13.915 385.714 199.258 385.714 L 384.601 385.714 384.601 339.521 L 384.601 293.328 383.492 293.136 C 382.758 293.009,382.343 292.695,382.263 292.205 C 375.981 253.630,344.512 213.815,301.988 190.640 L 299.523 189.297 297.667 192.329 C 295.259 196.264,291.919 200.919,289.086 204.286 C 286.407 207.472,286.466 207.196,288.313 207.935 C 290.761 208.915,299.304 213.629,304.452 216.842 C 334.424 235.544,354.341 262.175,359.879 290.951 C 361.496 299.355,361.587 301.582,361.591 333.024 L 361.596 363.080 199.258 363.080 L 36.920 363.080 36.810 335.065 C 36.691 305.000,36.886 299.687,38.402 291.573 C 44.520 258.847,69.182 229.113,105.935 210.154 L 111.870 207.092 117.809 212.933 C 170.710 264.957,255.689 255.617,296.598 193.282 C 330.595 141.480,315.933 70.231,264.007 34.905 C 243.839 21.185,216.160 13.354,193.878 15.066 M206.865 38.231 C 279.719 45.058,317.189 128.413,273.495 186.456 C 229.478 244.928,138.238 231.904,112.328 163.451 C 88.382 100.185,139.892 31.955,206.865 38.231 " stroke="none" fill="#27bdba" fill-rule="evenodd"></path><path id="path2" d="M194.903 38.114 C 195.467 38.199,196.302 38.197,196.758 38.109 C 197.215 38.021,196.753 37.951,195.733 37.954 C 194.712 37.957,194.339 38.029,194.903 38.114 M201.953 38.114 C 202.517 38.199,203.352 38.197,203.808 38.109 C 204.265 38.021,203.803 37.951,202.783 37.954 C 201.763 37.957,201.389 38.029,201.953 38.114 M117.061 49.072 L 113.729 52.505 117.161 49.173 C 120.349 46.078,120.763 45.640,120.493 45.640 C 120.438 45.640,118.893 47.185,117.061 49.072 M135.969 62.801 L 134.879 64.007 136.085 62.918 C 137.209 61.902,137.462 61.596,137.175 61.596 C 137.111 61.596,136.569 62.138,135.969 62.801 M264.549 65.028 C 266.086 66.666,266.419 66.961,266.419 66.682 C 266.419 66.623,265.626 65.829,264.657 64.920 L 262.894 63.265 264.549 65.028 M131.145 67.625 L 130.056 68.831 131.262 67.741 C 132.386 66.725,132.638 66.419,132.351 66.419 C 132.288 66.419,131.745 66.962,131.145 67.625 M83.242 127.644 C 83.242 129.174,83.307 129.801,83.387 129.035 C 83.467 128.270,83.467 127.018,83.387 126.252 C 83.307 125.487,83.242 126.113,83.242 127.644 M314.750 126.716 C 314.754 127.532,314.830 127.823,314.919 127.361 C 315.008 126.900,315.005 126.232,314.912 125.877 C 314.819 125.522,314.746 125.900,314.750 126.716 M298.015 191.119 C 296.888 192.931,296.499 193.850,297.168 193.117 C 297.658 192.580,299.537 189.239,299.349 189.239 C 299.258 189.239,298.657 190.085,298.015 191.119 M130.241 193.066 C 130.241 193.130,130.784 193.673,131.447 194.272 L 132.653 195.362 131.563 194.156 C 130.547 193.032,130.241 192.779,130.241 193.066 M264.553 196.568 L 262.152 199.072 264.657 196.671 C 266.034 195.351,267.161 194.223,267.161 194.167 C 267.161 193.893,266.784 194.241,264.553 196.568 M135.065 197.890 C 135.065 197.954,135.608 198.496,136.271 199.096 L 137.477 200.186 136.387 198.980 C 135.371 197.855,135.065 197.603,135.065 197.890 M287.515 205.659 C 286.839 206.526,286.582 207.000,286.945 206.712 C 287.665 206.140,289.214 204.082,288.925 204.082 C 288.826 204.082,288.192 204.791,287.515 205.659 M117.254 212.801 C 119.185 214.740,120.848 216.327,120.950 216.327 C 121.052 216.327,119.556 214.740,117.625 212.801 C 115.695 210.863,114.031 209.276,113.929 209.276 C 113.827 209.276,115.323 210.863,117.254 212.801 M54.917 221.336 C 53.396 222.866,52.236 224.119,52.338 224.119 C 52.440 224.119,53.767 222.866,55.288 221.336 C 56.808 219.805,57.968 218.553,57.866 218.553 C 57.764 218.553,56.437 219.805,54.917 221.336 M343.043 221.150 C 344.254 222.375,345.329 223.377,345.431 223.377 C 345.533 223.377,344.625 222.375,343.414 221.150 C 342.202 219.926,341.127 218.924,341.025 218.924 C 340.923 218.924,341.831 219.926,343.043 221.150 M194.527 223.642 C 195.088 223.727,196.006 223.727,196.568 223.642 C 197.129 223.557,196.670 223.488,195.547 223.488 C 194.425 223.488,193.966 223.557,194.527 223.642 M201.953 223.643 C 202.517 223.728,203.352 223.726,203.808 223.638 C 204.265 223.550,203.803 223.480,202.783 223.483 C 201.763 223.486,201.389 223.558,201.953 223.643 M36.917 333.488 L 36.920 363.080 199.258 363.080 L 361.596 363.080 361.599 335.250 L 361.603 307.421 361.504 335.158 L 361.405 362.894 199.258 362.894 L 37.110 362.894 37.012 333.395 L 36.914 303.896 36.917 333.488 " stroke="none" fill="#5ccdcb" fill-rule="evenodd"></path><path id="path3" d="M198.237 38.114 C 198.799 38.199,199.717 38.199,200.278 38.114 C 200.840 38.029,200.380 37.959,199.258 37.959 C 198.135 37.959,197.676 38.029,198.237 38.114 M133.561 65.213 L 132.282 66.605 133.673 65.326 C 134.439 64.623,135.065 63.997,135.065 63.935 C 135.065 63.651,134.751 63.918,133.561 65.213 M291.737 127.644 C 291.737 128.358,291.814 128.650,291.907 128.293 C 292.000 127.936,292.000 127.352,291.907 126.994 C 291.814 126.637,291.737 126.929,291.737 127.644 M83.236 132.468 C 83.236 133.794,83.303 134.337,83.385 133.673 C 83.468 133.010,83.468 131.925,83.385 131.262 C 83.303 130.598,83.236 131.141,83.236 132.468 M315.134 131.911 C 315.137 132.931,315.209 133.305,315.294 132.741 C 315.379 132.177,315.377 131.342,315.289 130.885 C 315.201 130.429,315.131 130.891,315.134 131.911 M133.581 196.475 C 134.273 197.189,134.923 197.774,135.025 197.774 C 135.127 197.774,134.644 197.189,133.952 196.475 C 133.259 195.761,132.610 195.176,132.507 195.176 C 132.405 195.176,132.888 195.761,133.581 196.475 M58.789 217.532 L 57.699 218.738 58.905 217.649 C 60.029 216.633,60.282 216.327,59.995 216.327 C 59.931 216.327,59.389 216.869,58.789 217.532 M338.776 216.814 C 338.776 216.878,339.318 217.420,339.981 218.020 L 341.187 219.109 340.098 217.904 C 339.082 216.779,338.776 216.527,338.776 216.814 M198.237 223.642 C 198.799 223.727,199.717 223.727,200.278 223.642 C 200.840 223.557,200.380 223.488,199.258 223.488 C 198.135 223.488,197.676 223.557,198.237 223.642 " stroke="none" fill="#a1e2e1" fill-rule="evenodd"></path><path id="path4" d="M280.891 48.794 C 282.821 50.733,284.484 52.319,284.586 52.319 C 284.688 52.319,283.192 50.733,281.262 48.794 C 279.331 46.855,277.668 45.269,277.566 45.269 C 277.464 45.269,278.960 46.855,280.891 48.794 M106.600 133.766 C 106.602 134.787,106.674 135.160,106.760 134.596 C 106.845 134.032,106.843 133.197,106.755 132.741 C 106.667 132.284,106.597 132.746,106.600 133.766 M291.752 133.581 C 291.752 134.499,291.825 134.875,291.913 134.416 C 292.002 133.956,292.002 133.205,291.913 132.746 C 291.825 132.287,291.752 132.662,291.752 133.581 M315.114 134.694 C 315.114 135.408,315.190 135.700,315.284 135.343 C 315.377 134.986,315.377 134.402,315.284 134.045 C 315.190 133.687,315.114 133.980,315.114 134.694 M280.883 212.894 L 277.365 216.512 280.983 212.994 C 284.343 209.727,284.770 209.276,284.501 209.276 C 284.446 209.276,282.818 210.904,280.883 212.894 M329.484 236.827 C 330.393 237.797,331.187 238.590,331.246 238.590 C 331.525 238.590,331.230 238.257,329.592 236.719 L 327.829 235.065 329.484 236.827 M68.072 237.570 L 66.605 239.147 68.182 237.680 C 69.648 236.316,69.929 235.993,69.649 235.993 C 69.588 235.993,68.878 236.702,68.072 237.570 " stroke="none" fill="#cdf0ef" fill-rule="evenodd"></path></g></svg>