<svg id="svg" version="1.1" width="400" height="457.95275590551176" viewBox="0 0 400 457.95275590551176" xmlns="http://www.w3.org/2000/svg" xmlns:xlink="http://www.w3.org/1999/xlink" ><g id="svgg"><path id="path0" d="M0.000 228.800 L 0.000 457.600 200.000 457.600 L 400.000 457.600 400.000 228.800 L 400.000 0.000 200.000 0.000 L 0.000 0.000 0.000 228.800 M216.800 11.120 C 222.581 11.796,235.115 14.273,237.400 15.191 C 237.840 15.368,240.000 16.085,242.200 16.785 C 244.400 17.485,246.920 18.382,247.800 18.778 C 248.680 19.175,251.020 20.185,253.000 21.025 C 254.980 21.864,257.500 23.033,258.600 23.622 C 262.920 25.936,264.606 26.936,264.733 27.261 C 264.807 27.447,265.080 27.600,265.341 27.600 C 265.928 27.600,276.268 34.365,277.483 35.543 C 277.969 36.015,278.464 36.400,278.583 36.400 C 278.702 36.400,279.133 36.715,279.539 37.100 C 279.946 37.485,281.341 38.695,282.639 39.789 C 292.817 48.366,303.478 61.335,309.609 72.600 C 311.541 76.150,314.615 82.318,315.590 84.600 C 316.059 85.700,316.605 86.960,316.802 87.400 C 317.582 89.139,320.800 99.199,320.800 99.897 C 320.800 100.306,320.955 100.811,321.144 101.020 C 321.333 101.229,321.710 102.480,321.983 103.800 C 322.256 105.120,322.641 106.920,322.838 107.800 C 323.165 109.254,323.900 113.863,324.817 120.200 C 325.007 121.520,325.177 140.870,325.193 163.200 C 325.224 206.938,325.175 205.600,326.741 205.600 C 328.474 205.600,336.550 206.860,337.274 207.243 C 337.644 207.439,338.364 207.601,338.874 207.602 C 339.383 207.604,340.316 207.874,340.946 208.202 C 341.576 208.531,342.386 208.802,342.746 208.805 C 343.106 208.807,344.158 209.243,345.085 209.773 C 346.012 210.303,347.182 210.867,347.685 211.026 C 349.764 211.684,357.443 217.382,360.390 220.453 C 366.100 226.404,372.400 237.605,372.400 241.806 C 372.400 242.265,372.556 242.811,372.747 243.020 C 374.331 244.752,374.400 248.292,374.400 328.265 C 374.400 408.504,374.405 408.235,372.796 413.400 C 370.518 420.710,369.971 421.995,367.171 426.600 C 363.753 432.221,359.368 436.982,353.800 441.118 C 352.078 442.396,347.165 445.200,346.646 445.200 C 346.291 445.200,346.000 445.380,346.000 445.600 C 346.000 445.820,345.775 446.001,345.500 446.002 C 345.225 446.004,344.550 446.237,344.000 446.521 C 343.450 446.805,341.920 447.358,340.600 447.751 C 339.280 448.143,337.750 448.631,337.200 448.834 C 333.641 450.153,331.399 450.176,202.600 450.185 C 99.172 450.193,74.507 450.096,72.400 449.673 C 69.468 449.084,66.144 448.126,65.105 447.571 C 64.723 447.367,64.084 447.200,63.685 447.200 C 63.286 447.200,62.789 447.049,62.580 446.864 C 62.371 446.679,61.570 446.284,60.800 445.985 C 57.025 444.521,49.916 439.715,46.200 436.114 C 43.923 433.907,39.600 428.347,39.600 427.624 C 39.600 427.391,39.420 427.200,39.200 427.200 C 38.980 427.200,38.800 427.045,38.800 426.855 C 38.800 426.666,38.080 425.201,37.200 423.601 C 35.575 420.643,33.696 415.345,32.732 411.000 C 31.948 407.465,31.944 247.074,32.728 244.400 C 35.060 236.444,36.327 233.378,39.338 228.400 C 41.215 225.298,41.471 224.995,46.600 219.802 C 51.761 214.577,56.506 211.567,64.600 208.386 C 67.786 207.134,75.753 205.600,79.070 205.600 L 80.400 205.600 80.400 167.494 C 80.400 129.491,80.711 118.833,81.980 113.400 C 82.185 112.520,82.455 110.908,82.580 109.819 C 82.705 108.729,82.973 107.289,83.175 106.619 C 83.378 105.948,84.110 103.240,84.804 100.600 C 85.985 96.101,88.218 89.317,89.413 86.600 C 92.148 80.378,93.228 78.105,94.540 75.800 C 95.042 74.920,96.148 72.940,96.999 71.400 C 98.620 68.465,101.165 64.342,101.566 64.000 C 101.695 63.890,102.416 62.900,103.168 61.800 C 104.361 60.056,106.030 57.914,110.000 53.030 C 112.211 50.311,123.498 39.383,126.160 37.386 C 127.722 36.214,129.949 34.522,131.108 33.627 C 132.268 32.732,133.378 32.000,133.575 32.000 C 133.772 32.000,133.993 31.859,134.067 31.686 C 134.500 30.665,153.742 20.000,155.151 20.000 C 155.362 20.000,156.045 19.747,156.668 19.437 C 158.474 18.539,159.541 18.155,164.000 16.800 C 166.310 16.098,168.560 15.376,169.000 15.196 C 170.462 14.597,177.425 12.946,180.800 12.397 C 182.010 12.201,184.080 11.852,185.400 11.622 C 186.720 11.393,188.880 11.191,190.200 11.174 C 191.520 11.157,192.960 10.984,193.400 10.790 C 194.416 10.340,212.287 10.592,216.800 11.120 M193.600 36.019 C 188.416 36.515,182.958 37.496,179.054 38.633 C 177.984 38.945,176.779 39.200,176.378 39.200 C 175.976 39.200,175.551 39.356,175.432 39.547 C 175.314 39.739,174.458 40.016,173.529 40.165 C 172.600 40.314,171.651 40.576,171.420 40.749 C 171.189 40.921,170.100 41.378,169.000 41.765 C 164.670 43.285,155.846 47.668,151.816 50.300 C 150.048 51.455,148.391 52.400,148.134 52.400 C 147.877 52.400,147.607 52.535,147.533 52.700 C 147.460 52.865,146.500 53.716,145.400 54.592 C 144.300 55.467,143.193 56.367,142.940 56.592 C 142.688 56.816,141.802 57.540,140.971 58.200 C 138.569 60.110,135.462 62.861,134.686 63.767 C 134.293 64.225,133.113 65.500,132.063 66.600 C 124.264 74.774,118.727 83.216,113.172 95.400 C 111.893 98.207,110.259 103.230,108.424 110.000 C 107.952 111.741,107.218 115.720,106.690 119.400 C 106.328 121.925,105.605 203.249,105.929 204.930 C 106.123 205.934,299.772 205.971,300.157 204.967 C 300.551 203.942,300.435 128.096,300.035 125.433 C 299.835 124.095,299.366 120.840,298.994 118.200 C 298.622 115.560,298.169 113.040,297.987 112.600 C 297.806 112.160,297.544 111.080,297.405 110.200 C 297.265 109.320,296.989 108.060,296.791 107.400 C 296.042 104.908,293.920 98.568,293.578 97.800 C 293.382 97.360,292.859 96.054,292.416 94.898 C 287.524 82.138,273.572 63.969,262.600 56.068 C 262.380 55.909,261.089 54.929,259.730 53.890 C 258.372 52.850,257.129 52.000,256.968 52.000 C 256.807 52.000,256.119 51.582,255.438 51.071 C 252.946 49.202,243.281 44.235,238.600 42.418 C 236.840 41.735,235.040 41.012,234.600 40.811 C 234.160 40.611,233.176 40.323,232.413 40.172 C 231.650 40.022,230.750 39.764,230.413 39.599 C 228.920 38.870,222.497 37.366,217.600 36.600 C 211.587 35.659,200.242 35.384,193.600 36.019 M76.400 231.071 C 74.280 231.424,70.058 233.265,67.600 234.910 C 65.767 236.137,60.800 241.086,60.800 241.686 C 60.800 241.868,60.381 242.687,59.870 243.508 C 58.707 245.372,57.774 248.229,57.228 251.600 C 56.643 255.207,56.637 397.729,57.222 403.116 C 58.472 414.638,66.293 422.961,77.600 424.804 C 82.344 425.577,328.455 425.122,331.236 424.335 C 340.650 421.670,347.306 413.965,348.802 404.000 C 349.244 401.056,349.246 256.172,348.804 252.600 C 348.357 248.983,347.577 245.600,347.190 245.600 C 347.023 245.600,346.763 245.108,346.613 244.508 C 345.551 240.276,339.135 234.473,332.600 231.832 C 330.738 231.080,80.811 230.337,76.400 231.071 M227.600 340.203 L 227.600 377.206 202.900 377.103 L 178.200 377.000 178.097 340.600 C 178.040 320.580,178.079 303.975,178.184 303.700 C 178.334 303.307,183.666 303.200,202.987 303.200 L 227.600 303.200 227.600 340.203 " stroke="none" fill="#ffffff" fill-rule="evenodd"></path><path id="path1" d="M195.400 11.436 C 158.645 13.647,124.108 33.246,102.710 64.036 C 98.091 70.681,92.313 81.488,89.736 88.299 C 87.658 93.793,86.025 98.620,86.012 99.305 C 86.006 99.693,85.836 100.323,85.637 100.705 C 85.161 101.615,83.328 110.034,82.513 115.049 C 81.961 118.452,81.850 124.998,81.713 162.270 C 81.591 195.636,81.443 205.632,81.067 205.944 C 80.799 206.167,78.335 206.606,75.590 206.921 C 52.642 209.556,35.328 227.140,32.780 250.400 C 32.122 256.407,32.463 405.404,33.143 408.800 C 34.470 415.433,38.840 426.333,40.840 428.000 C 40.972 428.110,41.152 428.419,41.240 428.686 C 42.880 433.672,56.957 444.146,65.800 446.961 C 74.240 449.648,60.297 449.400,202.800 449.400 L 331.400 449.400 336.515 448.078 C 344.763 445.947,352.619 441.620,358.689 435.867 C 359.837 434.778,360.682 433.732,360.565 433.543 C 360.448 433.354,360.621 433.200,360.949 433.200 C 361.277 433.200,361.954 432.615,362.453 431.900 C 362.953 431.185,363.472 430.510,363.607 430.400 C 367.243 427.440,372.469 413.889,373.154 405.643 C 374.348 391.288,373.629 245.975,372.357 244.620 C 372.161 244.411,372.000 243.919,372.000 243.526 C 372.000 242.244,369.604 235.564,368.316 233.255 C 367.625 232.015,366.686 230.302,366.229 229.448 C 359.845 217.500,342.320 206.971,328.580 206.829 C 326.958 206.812,325.556 206.596,325.280 206.320 C 324.914 205.954,324.796 196.927,324.783 168.220 C 324.764 126.954,324.639 123.639,322.653 111.600 C 320.974 101.422,317.850 91.574,313.159 81.662 C 312.081 79.387,311.200 77.468,311.200 77.398 C 311.200 77.142,307.863 71.331,306.492 69.200 C 302.431 62.889,301.154 61.051,298.148 57.200 C 286.714 42.549,268.149 28.282,251.600 21.427 C 250.610 21.017,249.080 20.365,248.200 19.979 C 247.320 19.593,245.700 18.970,244.600 18.596 C 243.500 18.222,242.240 17.767,241.800 17.586 C 241.360 17.405,240.010 16.969,238.800 16.617 C 237.590 16.266,235.985 15.780,235.234 15.539 C 233.081 14.848,225.279 13.213,222.200 12.808 C 220.660 12.605,218.452 12.255,217.293 12.029 C 215.106 11.603,199.606 11.183,195.400 11.436 M216.600 35.609 C 221.996 36.414,224.251 36.820,225.200 37.156 C 225.750 37.351,227.370 37.818,228.800 38.194 C 242.181 41.717,255.951 49.043,266.845 58.436 C 270.415 61.513,277.995 69.306,277.998 69.900 C 277.999 70.175,278.147 70.400,278.326 70.400 C 278.505 70.400,279.810 71.956,281.226 73.859 C 290.777 86.691,296.726 100.372,299.378 115.600 C 299.742 117.690,300.255 120.390,300.520 121.600 C 300.876 123.233,301.000 134.426,301.000 165.000 L 301.000 206.200 203.082 206.200 L 105.164 206.200 105.193 166.400 C 105.225 121.919,105.282 120.565,107.585 109.804 C 108.106 107.367,109.922 101.230,110.372 100.387 C 110.551 100.050,110.825 99.197,110.980 98.491 C 111.135 97.786,111.428 97.106,111.631 96.981 C 111.834 96.855,112.000 96.498,112.000 96.187 C 112.000 95.174,116.741 85.735,119.268 81.717 C 126.282 70.566,134.287 61.792,144.200 54.392 C 145.520 53.406,146.660 52.465,146.733 52.300 C 146.807 52.135,147.020 52.000,147.208 52.000 C 147.396 52.000,148.694 51.235,150.092 50.300 C 153.987 47.696,154.659 47.317,159.600 44.938 C 168.843 40.489,177.813 37.451,184.200 36.606 C 185.300 36.461,186.653 36.171,187.207 35.961 C 189.926 34.932,210.422 34.686,216.600 35.609 M330.866 230.614 C 339.870 232.508,346.748 239.471,349.224 249.200 C 350.242 253.197,350.421 402.028,349.413 406.000 C 348.385 410.055,347.931 411.325,346.963 412.859 C 346.433 413.698,346.000 414.549,346.000 414.752 C 346.000 415.370,340.359 421.200,339.760 421.200 C 339.452 421.200,339.199 421.335,339.198 421.500 C 339.196 421.665,337.891 422.411,336.298 423.158 C 332.586 424.898,332.088 425.085,330.416 425.374 C 325.838 426.166,76.094 425.597,73.562 424.789 C 67.028 422.706,61.850 418.253,58.859 412.147 C 56.012 406.332,56.200 412.350,56.200 327.200 L 56.200 250.200 57.147 247.600 C 59.313 241.651,63.264 236.327,67.143 234.132 C 68.164 233.554,69.450 232.793,70.000 232.441 C 70.550 232.089,72.260 231.415,73.800 230.942 L 76.600 230.084 202.274 230.042 C 313.817 230.005,328.276 230.069,330.866 230.614 M179.467 304.267 C 179.320 304.413,179.200 320.528,179.200 340.077 L 179.200 375.620 180.226 376.010 C 181.821 376.616,226.109 376.531,226.720 375.920 C 227.551 375.089,227.400 304.563,226.567 304.243 C 225.701 303.910,179.800 303.933,179.467 304.267 " stroke="none" fill="#27bdbb" fill-rule="evenodd"></path><path id="path2" d="M194.800 11.165 C 193.590 11.294,197.370 11.400,203.200 11.400 C 209.030 11.400,212.900 11.281,211.800 11.135 C 209.392 10.816,197.880 10.836,194.800 11.165 M183.600 12.400 L 182.600 12.720 183.600 12.730 C 184.150 12.736,185.410 12.597,186.400 12.420 L 188.200 12.100 186.400 12.090 C 185.410 12.084,184.150 12.224,183.600 12.400 M219.400 12.400 C 221.179 12.853,223.253 12.853,222.200 12.400 C 221.760 12.211,220.680 12.065,219.800 12.075 C 218.271 12.094,218.253 12.108,219.400 12.400 M225.000 13.158 C 226.207 13.653,229.114 14.084,228.400 13.662 C 228.070 13.467,226.990 13.200,226.000 13.068 C 224.908 12.923,224.514 12.959,225.000 13.158 M177.400 13.619 C 176.842 13.871,177.085 13.907,178.200 13.738 C 179.080 13.604,179.875 13.428,179.967 13.347 C 180.310 13.044,178.168 13.271,177.400 13.619 M230.400 14.400 C 230.950 14.576,231.850 14.720,232.400 14.720 L 233.400 14.720 232.400 14.400 C 231.850 14.224,230.950 14.080,230.400 14.080 L 229.400 14.080 230.400 14.400 M172.400 14.818 C 171.962 15.115,172.124 15.152,173.000 14.956 C 174.471 14.627,174.790 14.398,173.767 14.406 C 173.345 14.409,172.730 14.595,172.400 14.818 M235.200 15.582 C 235.530 15.805,236.145 15.991,236.567 15.994 C 237.590 16.002,237.271 15.773,235.800 15.444 C 234.924 15.248,234.762 15.285,235.200 15.582 M165.600 16.800 C 164.805 17.314,165.804 17.314,167.000 16.800 L 167.800 16.456 167.000 16.434 C 166.560 16.422,165.930 16.587,165.600 16.800 M239.400 16.800 C 239.840 16.989,240.470 17.144,240.800 17.144 C 241.178 17.144,241.104 17.017,240.600 16.800 C 240.160 16.611,239.530 16.456,239.200 16.456 C 238.822 16.456,238.896 16.583,239.400 16.800 M162.856 17.659 C 162.117 17.872,161.587 18.120,161.679 18.212 C 161.881 18.414,164.800 17.637,164.800 17.381 C 164.800 17.146,164.482 17.191,162.856 17.659 M241.827 17.555 C 242.252 17.944,244.729 18.596,244.354 18.220 C 244.219 18.086,243.511 17.804,242.781 17.595 C 242.051 17.385,241.622 17.368,241.827 17.555 M245.200 18.800 C 245.530 19.013,246.070 19.188,246.400 19.188 C 246.933 19.188,246.933 19.145,246.400 18.800 C 246.070 18.587,245.530 18.412,245.200 18.412 C 244.667 18.412,244.667 18.455,245.200 18.800 M157.200 19.831 L 156.200 20.433 157.200 20.168 C 158.652 19.784,159.603 19.224,158.800 19.226 C 158.470 19.227,157.750 19.499,157.200 19.831 M154.400 21.000 C 153.850 21.314,153.580 21.572,153.800 21.572 C 154.020 21.572,154.650 21.314,155.200 21.000 C 155.750 20.686,156.020 20.428,155.800 20.428 C 155.580 20.428,154.950 20.686,154.400 21.000 M150.700 22.626 C 149.655 23.170,148.800 23.705,148.800 23.814 C 148.800 23.993,152.760 22.123,153.167 21.752 C 153.662 21.301,152.361 21.762,150.700 22.626 M252.400 21.734 C 252.400 21.837,252.981 22.124,253.691 22.372 C 254.401 22.619,254.806 22.657,254.591 22.456 C 254.135 22.029,252.400 21.458,252.400 21.734 M260.000 25.384 C 260.000 25.494,260.720 25.951,261.600 26.400 C 262.480 26.849,263.200 27.126,263.200 27.016 C 263.200 26.906,262.480 26.449,261.600 26.000 C 260.720 25.551,260.000 25.274,260.000 25.384 M140.800 28.022 C 138.930 29.134,137.220 30.247,137.000 30.495 C 136.780 30.744,137.140 30.609,137.800 30.197 C 138.460 29.785,140.215 28.746,141.700 27.889 C 143.995 26.565,144.774 25.999,144.300 26.000 C 144.245 26.000,142.670 26.910,140.800 28.022 M265.820 28.736 C 266.448 29.292,269.200 30.879,269.200 30.686 C 269.200 30.445,266.094 28.400,265.729 28.400 C 265.570 28.400,265.611 28.551,265.820 28.736 M133.800 32.484 C 125.422 38.478,116.377 46.553,111.450 52.438 L 108.300 56.200 111.431 52.800 C 118.373 45.262,125.026 39.232,131.700 34.427 C 134.708 32.261,135.562 31.554,135.100 31.613 C 135.045 31.620,134.460 32.012,133.800 32.484 M272.000 32.549 C 272.000 32.666,272.765 33.288,273.700 33.931 C 274.635 34.575,276.875 36.282,278.678 37.726 C 280.481 39.170,281.867 40.138,281.757 39.876 C 281.483 39.221,272.000 32.101,272.000 32.549 M201.700 35.096 C 202.965 35.175,205.035 35.175,206.300 35.096 C 207.565 35.016,206.530 34.951,204.000 34.951 C 201.470 34.951,200.435 35.016,201.700 35.096 M192.100 35.476 C 192.485 35.576,193.115 35.576,193.500 35.476 C 193.885 35.375,193.570 35.293,192.800 35.293 C 192.030 35.293,191.715 35.375,192.100 35.476 M214.000 35.568 C 217.437 36.173,219.809 36.387,219.200 36.039 C 218.870 35.850,217.160 35.595,215.400 35.473 C 213.211 35.321,212.769 35.351,214.000 35.568 M187.200 35.996 C 186.799 36.252,187.330 36.298,188.800 36.134 C 190.010 35.999,191.075 35.823,191.167 35.744 C 191.558 35.406,187.744 35.648,187.200 35.996 M222.200 36.746 C 223.371 37.234,225.926 37.658,225.200 37.244 C 224.870 37.056,223.880 36.792,223.000 36.658 C 221.991 36.503,221.695 36.536,222.200 36.746 M181.000 37.219 C 180.442 37.471,180.685 37.507,181.800 37.338 C 182.680 37.204,183.475 37.028,183.567 36.947 C 183.910 36.644,181.768 36.871,181.000 37.219 M177.800 38.000 C 177.296 38.217,177.222 38.344,177.600 38.344 C 177.930 38.344,178.560 38.189,179.000 38.000 C 179.504 37.783,179.578 37.656,179.200 37.656 C 178.870 37.656,178.240 37.811,177.800 38.000 M233.183 39.801 C 234.824 40.332,236.229 40.704,236.306 40.628 C 236.506 40.427,231.565 38.797,230.822 38.818 C 230.480 38.828,231.542 39.270,233.183 39.801 M170.600 40.186 C 169.055 40.893,169.774 40.903,171.600 40.200 C 172.370 39.903,172.730 39.655,172.400 39.648 C 172.070 39.642,171.260 39.883,170.600 40.186 M282.400 40.735 C 282.400 40.975,282.715 41.344,283.100 41.555 C 283.485 41.765,284.430 42.576,285.200 43.356 C 285.970 44.136,286.748 44.780,286.929 44.787 C 287.292 44.801,287.064 44.563,284.300 42.036 C 283.255 41.080,282.400 40.495,282.400 40.735 M165.700 42.012 C 164.361 42.551,164.611 42.824,166.000 42.340 C 166.660 42.110,167.200 41.849,167.200 41.761 C 167.200 41.524,166.713 41.605,165.700 42.012 M162.900 43.212 C 161.561 43.751,161.811 44.024,163.200 43.540 C 163.860 43.310,164.400 43.049,164.400 42.961 C 164.400 42.724,163.913 42.805,162.900 43.212 M242.895 43.420 C 243.058 43.587,243.958 44.067,244.895 44.485 C 245.833 44.904,246.420 45.065,246.200 44.844 C 245.980 44.623,245.080 44.143,244.200 43.779 C 243.320 43.414,242.733 43.253,242.895 43.420 M160.000 44.600 C 159.450 44.914,159.180 45.172,159.400 45.172 C 159.620 45.172,160.250 44.914,160.800 44.600 C 161.350 44.286,161.620 44.028,161.400 44.028 C 161.180 44.028,160.550 44.286,160.000 44.600 M156.700 46.226 C 155.655 46.770,154.800 47.305,154.800 47.414 C 154.800 47.524,155.700 47.157,156.800 46.600 C 157.900 46.043,158.800 45.500,158.800 45.393 C 158.800 45.129,158.836 45.114,156.700 46.226 M246.970 45.552 C 247.090 45.745,247.595 46.006,248.094 46.132 C 248.968 46.352,248.973 46.340,248.224 45.780 C 247.364 45.138,246.632 45.004,246.970 45.552 M289.003 46.784 C 290.693 48.869,291.354 49.507,290.886 48.600 C 290.659 48.160,289.963 47.350,289.340 46.800 L 288.206 45.800 289.003 46.784 M249.200 46.584 C 249.200 46.694,249.920 47.151,250.800 47.600 C 251.680 48.049,252.400 48.326,252.400 48.216 C 252.400 48.106,251.680 47.649,250.800 47.200 C 249.920 46.751,249.200 46.474,249.200 46.584 M253.000 48.690 C 253.220 48.900,254.120 49.476,255.000 49.970 C 255.880 50.465,256.240 50.570,255.800 50.204 C 254.906 49.461,252.372 48.091,253.000 48.690 M291.600 49.447 C 291.600 49.656,292.628 50.811,293.886 52.014 L 296.171 54.200 294.009 51.800 C 292.820 50.480,291.792 49.325,291.724 49.233 C 291.656 49.142,291.600 49.238,291.600 49.447 M149.700 50.446 C 148.337 51.319,147.895 51.906,149.100 51.243 C 150.018 50.739,151.456 49.627,151.200 49.619 C 151.090 49.616,150.415 49.988,149.700 50.446 M258.000 51.746 C 258.000 51.856,258.540 52.330,259.200 52.800 C 259.860 53.270,260.400 53.564,260.400 53.454 C 260.400 53.344,259.860 52.870,259.200 52.400 C 258.540 51.930,258.000 51.636,258.000 51.746 M144.785 54.029 L 143.400 55.258 144.900 54.181 C 146.226 53.230,146.657 52.800,146.285 52.800 C 146.222 52.800,145.547 53.353,144.785 54.029 M140.123 57.501 C 138.541 58.766,137.236 59.953,137.223 60.140 C 137.204 60.419,140.265 57.990,142.786 55.726 C 144.270 54.393,142.721 55.426,140.123 57.501 M264.800 57.097 C 266.010 58.207,267.064 59.055,267.142 58.982 C 267.304 58.831,264.705 56.485,263.439 55.640 C 262.977 55.331,263.590 55.987,264.800 57.097 M106.568 58.300 C 105.728 59.345,105.455 59.840,105.963 59.400 C 106.917 58.574,108.592 56.400,108.275 56.400 C 108.177 56.400,107.409 57.255,106.568 58.300 M298.575 57.732 C 299.191 58.539,299.776 59.200,299.875 59.200 C 300.153 59.200,298.421 56.860,297.909 56.544 C 297.659 56.389,297.959 56.924,298.575 57.732 M268.400 60.140 C 268.950 60.767,270.120 61.827,271.000 62.497 L 272.600 63.715 271.000 62.209 C 270.120 61.381,268.950 60.321,268.400 59.852 L 267.400 59.000 268.400 60.140 M103.517 62.300 C 101.811 64.687,101.500 65.200,101.761 65.200 C 101.876 65.200,102.704 64.120,103.600 62.800 C 105.532 59.955,105.468 59.570,103.517 62.300 M133.182 63.900 C 131.975 65.165,130.451 66.838,129.794 67.618 C 129.137 68.398,129.479 68.128,130.554 67.018 C 131.629 65.908,133.284 64.235,134.231 63.300 C 135.178 62.365,135.823 61.600,135.664 61.600 C 135.505 61.600,134.388 62.635,133.182 63.900 M303.077 64.031 C 303.475 64.708,304.056 65.473,304.368 65.731 C 304.680 65.989,304.432 65.435,303.815 64.500 C 302.520 62.537,302.009 62.212,303.077 64.031 M274.600 66.377 C 275.920 67.788,277.254 69.222,277.564 69.564 C 277.875 69.906,278.055 69.986,277.964 69.741 C 277.752 69.167,275.306 66.536,273.561 65.006 C 272.812 64.350,273.280 64.967,274.600 66.377 M305.633 67.900 C 306.128 68.725,306.750 69.670,307.016 70.000 C 307.282 70.330,308.259 71.995,309.186 73.700 C 310.114 75.405,310.949 76.800,311.043 76.800 C 311.359 76.800,309.108 72.624,307.108 69.500 C 305.093 66.353,303.989 65.155,305.633 67.900 M98.200 70.400 C 97.859 71.060,97.669 71.600,97.779 71.600 C 97.889 71.600,98.259 71.060,98.600 70.400 C 98.941 69.740,99.131 69.200,99.021 69.200 C 98.911 69.200,98.541 69.740,98.200 70.400 M126.487 71.416 C 124.790 73.723,125.083 73.714,126.979 71.400 C 127.790 70.410,128.307 69.607,128.127 69.616 C 127.947 69.624,127.209 70.434,126.487 71.416 M283.826 78.000 C 285.767 80.818,286.385 81.446,285.204 79.400 C 284.696 78.520,283.838 77.350,283.296 76.800 C 282.681 76.175,282.879 76.625,283.826 78.000 M94.192 77.700 C 92.871 80.274,90.849 84.800,91.020 84.800 C 91.184 84.800,94.410 78.393,94.935 77.026 C 95.358 75.924,94.881 76.356,94.192 77.700 M121.693 77.900 C 120.657 79.396,120.321 80.000,120.523 80.000 C 120.617 80.000,121.170 79.280,121.753 78.400 C 122.936 76.612,122.884 76.179,121.693 77.900 M311.219 77.245 C 311.189 77.624,314.414 84.400,314.625 84.400 C 314.727 84.400,314.565 83.815,314.265 83.100 C 313.514 81.310,311.243 76.945,311.219 77.245 M286.967 82.822 C 287.527 83.824,288.525 85.624,289.185 86.822 C 289.845 88.020,290.389 88.842,290.393 88.649 C 290.402 88.190,287.433 82.832,286.597 81.800 C 286.241 81.360,286.407 81.820,286.967 82.822 M116.832 85.539 C 116.179 86.760,116.314 87.100,117.041 86.063 C 117.393 85.560,117.588 85.054,117.473 84.940 C 117.359 84.825,117.070 85.095,116.832 85.539 M89.979 86.655 C 89.758 87.236,89.652 87.785,89.743 87.876 C 89.833 87.967,90.099 87.492,90.333 86.820 C 90.853 85.328,90.539 85.182,89.979 86.655 M315.832 87.600 C 316.216 89.052,316.776 90.003,316.774 89.200 C 316.773 88.870,316.501 88.150,316.169 87.600 L 315.567 86.600 315.832 87.600 M88.844 89.644 C 88.598 90.351,88.463 90.996,88.544 91.078 C 88.626 91.159,88.921 90.674,89.200 90.000 C 89.479 89.326,89.614 88.681,89.500 88.567 C 89.386 88.453,89.091 88.938,88.844 89.644 M112.465 94.617 C 112.209 95.178,112.007 95.854,112.016 96.119 C 112.024 96.383,112.297 95.988,112.622 95.239 C 113.305 93.665,113.161 93.090,112.465 94.617 M111.177 97.861 C 110.955 98.444,110.832 99.097,110.904 99.312 C 110.976 99.527,111.235 99.050,111.480 98.251 C 111.994 96.574,111.774 96.290,111.177 97.861 M85.646 99.067 C 85.621 99.324,85.484 99.864,85.341 100.267 C 85.140 100.836,85.194 100.897,85.579 100.542 C 85.852 100.291,85.989 99.751,85.884 99.342 C 85.779 98.934,85.672 98.810,85.646 99.067 M320.249 100.800 C 320.524 102.387,321.189 103.852,321.157 102.800 C 321.147 102.470,320.884 101.570,320.573 100.800 L 320.007 99.400 320.249 100.800 M295.663 101.800 C 295.662 102.020,295.903 102.830,296.200 103.600 C 296.497 104.370,296.745 104.730,296.752 104.400 C 296.758 104.070,296.517 103.260,296.214 102.600 C 295.912 101.940,295.664 101.580,295.663 101.800 M84.400 104.000 C 84.130 105.124,83.989 106.123,84.087 106.220 C 84.184 106.317,84.477 105.470,84.738 104.338 C 85.000 103.206,85.141 102.207,85.052 102.119 C 84.963 102.030,84.670 102.876,84.400 104.000 M321.463 105.400 C 321.601 106.280,321.865 107.360,322.050 107.800 C 322.264 108.308,322.295 108.015,322.137 107.000 C 321.999 106.120,321.735 105.040,321.550 104.600 C 321.336 104.092,321.305 104.385,321.463 105.400 M296.856 105.600 C 296.856 105.930,297.011 106.560,297.200 107.000 C 297.417 107.504,297.544 107.578,297.544 107.200 C 297.544 106.870,297.389 106.240,297.200 105.800 C 296.983 105.296,296.856 105.222,296.856 105.600 M83.422 108.222 C 83.272 109.025,83.228 109.762,83.326 109.860 C 83.424 109.957,83.627 109.381,83.778 108.578 C 83.928 107.775,83.972 107.038,83.874 106.940 C 83.776 106.843,83.573 107.419,83.422 108.222 M108.046 107.667 C 108.021 108.034,107.896 108.664,107.770 109.067 C 107.552 109.762,107.563 109.763,107.997 109.087 C 108.248 108.696,108.373 108.066,108.273 107.687 C 108.111 107.068,108.088 107.066,108.046 107.667 M298.056 110.400 C 298.056 110.730,298.211 111.360,298.400 111.800 C 298.617 112.304,298.744 112.378,298.744 112.000 C 298.744 111.670,298.589 111.040,298.400 110.600 C 298.183 110.096,298.056 110.022,298.056 110.400 M322.688 112.000 C 322.815 113.210,323.059 114.560,323.230 115.000 C 323.401 115.440,323.438 114.810,323.312 113.600 C 323.185 112.390,322.941 111.040,322.770 110.600 C 322.599 110.160,322.562 110.790,322.688 112.000 M107.056 111.900 C 106.947 112.285,106.759 113.410,106.638 114.400 C 106.381 116.492,106.923 115.122,107.310 112.700 C 107.558 111.151,107.404 110.667,107.056 111.900 M82.200 115.200 C 82.044 116.547,82.001 117.734,82.105 117.838 C 82.209 117.942,82.419 116.922,82.571 115.571 C 82.724 114.221,82.767 113.034,82.667 112.933 C 82.566 112.833,82.356 113.853,82.200 115.200 M299.240 116.233 C 299.262 116.875,299.433 117.850,299.620 118.400 C 299.849 119.074,299.884 118.749,299.728 117.400 C 299.469 115.150,299.179 114.459,299.240 116.233 M105.868 118.559 C 105.720 119.633,105.623 121.162,105.652 121.956 C 105.680 122.750,105.860 122.050,106.051 120.400 C 106.440 117.048,106.286 115.507,105.868 118.559 M323.695 118.200 C 323.695 118.860,323.832 119.940,324.000 120.600 L 324.305 121.800 324.305 120.600 C 324.305 119.940,324.168 118.860,324.000 118.200 L 323.695 117.000 323.695 118.200 M81.720 122.000 C 81.720 123.210,81.795 123.705,81.887 123.100 C 81.978 122.495,81.978 121.505,81.887 120.900 C 81.795 120.295,81.720 120.790,81.720 122.000 M300.252 121.800 C 300.816 124.320,300.884 205.697,300.322 206.093 C 299.916 206.379,299.934 206.424,300.400 206.297 C 301.222 206.072,301.304 123.238,300.484 121.600 C 299.990 120.613,299.987 120.616,300.252 121.800 M324.534 126.000 C 324.534 127.650,324.605 128.325,324.691 127.500 C 324.778 126.675,324.778 125.325,324.691 124.500 C 324.605 123.675,324.534 124.350,324.534 126.000 M81.199 164.995 L 81.000 205.789 79.000 206.056 C 77.900 206.203,75.950 206.446,74.666 206.595 C 73.383 206.744,72.412 206.945,72.508 207.041 C 72.864 207.398,80.618 206.329,81.102 205.857 C 81.499 205.470,81.582 196.916,81.501 164.784 L 81.398 124.200 81.199 164.995 M105.293 126.000 C 105.293 126.770,105.375 127.085,105.476 126.700 C 105.576 126.315,105.576 125.685,105.476 125.300 C 105.375 124.915,105.293 125.230,105.293 126.000 M324.898 167.620 C 324.787 210.844,324.410 206.835,328.580 206.726 C 331.168 206.658,331.219 206.641,329.200 206.522 C 327.990 206.451,326.596 206.301,326.102 206.189 L 325.204 205.986 325.100 167.693 L 324.996 129.400 324.898 167.620 M104.903 205.600 C 105.048 206.131,116.203 206.200,202.233 206.201 L 299.400 206.202 202.423 206.100 C 125.475 206.019,105.373 205.895,105.093 205.499 C 104.831 205.130,104.782 205.157,104.903 205.600 M69.800 207.411 C 69.580 207.493,68.352 207.855,67.070 208.217 C 65.789 208.578,64.825 208.958,64.928 209.061 C 65.132 209.265,70.800 207.624,70.800 207.361 C 70.800 207.176,70.379 207.197,69.800 207.411 M335.600 207.582 C 335.930 207.805,336.545 207.991,336.967 207.994 C 337.990 208.002,337.671 207.773,336.200 207.444 C 335.324 207.248,335.162 207.285,335.600 207.582 M60.864 210.464 C 59.909 210.903,59.217 211.350,59.325 211.458 C 59.433 211.567,60.394 211.201,61.461 210.646 C 63.758 209.451,63.346 209.325,60.864 210.464 M346.000 211.279 C 347.870 212.235,350.120 213.438,351.000 213.951 C 352.316 214.719,352.423 214.740,351.604 214.068 C 350.380 213.065,344.966 210.187,343.600 209.813 C 343.050 209.663,344.130 210.322,346.000 211.279 M53.516 214.782 C 51.252 216.312,48.230 218.779,46.800 220.263 L 44.200 222.961 47.215 220.163 C 48.873 218.624,51.843 216.306,53.815 215.014 C 57.611 212.525,58.322 212.000,57.896 212.000 C 57.751 212.000,55.780 213.252,53.516 214.782 M352.800 214.925 C 352.800 215.007,353.698 215.832,354.795 216.757 C 355.892 217.682,356.693 218.205,356.575 217.920 C 356.373 217.433,352.800 214.598,352.800 214.925 M359.889 221.400 C 364.711 226.855,364.923 227.069,363.073 224.600 C 362.083 223.280,360.326 221.300,359.167 220.200 C 357.356 218.480,357.457 218.648,359.889 221.400 M40.614 227.500 C 39.847 228.545,39.215 229.565,39.210 229.767 C 39.204 229.968,39.256 230.058,39.323 229.967 C 40.683 228.131,42.352 225.600,42.203 225.600 C 42.096 225.600,41.380 226.455,40.614 227.500 M366.400 229.808 C 366.400 229.922,366.850 230.729,367.400 231.600 C 367.950 232.471,368.400 233.357,368.400 233.568 C 368.400 233.780,368.578 234.063,368.795 234.197 C 369.329 234.527,368.900 233.395,367.699 231.300 C 366.803 229.737,366.400 229.275,366.400 229.808 M139.268 230.300 C 173.955 230.356,230.835 230.356,265.668 230.300 C 300.500 230.244,272.120 230.198,202.600 230.198 C 133.080 230.198,104.580 230.244,139.268 230.300 M38.023 231.850 C 37.553 232.648,37.233 233.366,37.313 233.446 C 37.392 233.526,37.861 232.873,38.354 231.996 C 39.475 230.002,39.188 229.877,38.023 231.850 M332.000 231.158 C 332.330 231.342,333.140 231.599,333.800 231.730 L 335.000 231.967 333.800 231.402 C 332.450 230.765,330.923 230.559,332.000 231.158 M70.349 232.265 C 69.847 232.874,69.885 232.887,70.800 232.411 C 72.141 231.714,72.242 231.600,71.516 231.600 C 71.176 231.600,70.651 231.899,70.349 232.265 M335.200 232.179 C 335.200 232.289,335.740 232.659,336.400 233.000 C 337.060 233.341,337.600 233.531,337.600 233.421 C 337.600 233.311,337.060 232.941,336.400 232.600 C 335.740 232.259,335.200 232.069,335.200 232.179 M66.160 234.752 C 65.302 235.385,63.880 236.686,63.000 237.642 C 61.680 239.076,61.820 238.996,63.800 237.185 C 65.120 235.977,66.650 234.686,67.200 234.315 C 67.750 233.945,68.092 233.633,67.960 233.621 C 67.828 233.609,67.018 234.118,66.160 234.752 M338.800 234.279 C 341.078 235.906,344.221 239.149,345.662 241.362 C 346.508 242.661,347.200 243.559,347.200 243.357 C 347.200 241.849,341.671 235.611,339.158 234.283 C 337.867 233.600,337.849 233.600,338.800 234.279 M35.265 237.817 C 34.595 239.288,34.723 239.602,35.447 238.265 C 35.786 237.640,35.988 237.054,35.896 236.963 C 35.805 236.871,35.521 237.256,35.265 237.817 M370.812 239.200 C 370.812 239.530,370.987 240.070,371.200 240.400 C 371.545 240.933,371.588 240.933,371.588 240.400 C 371.588 240.070,371.413 239.530,371.200 239.200 C 370.855 238.667,370.812 238.667,370.812 239.200 M34.033 241.833 C 33.775 242.859,33.639 243.772,33.731 243.864 C 33.822 243.956,34.109 243.192,34.367 242.167 C 34.625 241.141,34.761 240.228,34.669 240.136 C 34.578 240.044,34.291 240.808,34.033 241.833 M371.860 242.800 C 371.995 243.570,372.275 244.380,372.481 244.600 C 372.717 244.851,372.752 244.553,372.574 243.800 C 372.143 241.965,371.573 241.168,371.860 242.800 M347.228 244.200 C 347.228 244.420,347.486 245.050,347.800 245.600 C 348.114 246.150,348.372 246.420,348.372 246.200 C 348.372 245.980,348.114 245.350,347.800 244.800 C 347.486 244.250,347.228 243.980,347.228 244.200 M33.056 245.684 C 32.921 246.188,32.827 246.960,32.846 247.400 C 32.865 247.840,33.045 247.498,33.246 246.640 C 33.636 244.978,33.470 244.140,33.056 245.684 M348.456 247.200 C 348.456 247.530,348.611 248.160,348.800 248.600 C 349.017 249.104,349.144 249.178,349.144 248.800 C 349.144 248.470,348.989 247.840,348.800 247.400 C 348.583 246.896,348.456 246.822,348.456 247.200 M373.081 249.800 C 373.322 253.458,373.536 254.016,373.540 251.000 C 373.542 249.680,373.398 248.240,373.220 247.800 C 373.032 247.335,372.974 248.173,373.081 249.800 M56.649 249.015 C 56.512 249.373,56.418 250.146,56.440 250.733 C 56.473 251.591,56.552 251.495,56.846 250.240 C 57.222 248.639,57.095 247.853,56.649 249.015 M32.501 250.600 C 32.505 251.480,32.587 251.793,32.683 251.295 C 32.779 250.798,32.775 250.078,32.675 249.695 C 32.575 249.313,32.496 249.720,32.501 250.600 M349.400 328.000 C 349.400 370.926,349.517 405.632,349.660 405.124 C 349.803 404.616,349.920 369.910,349.920 328.000 C 349.920 286.090,349.803 251.384,349.660 250.876 C 349.517 250.368,349.400 285.074,349.400 328.000 M56.196 327.200 C 56.196 368.670,56.243 385.635,56.300 364.900 C 56.357 344.165,56.357 310.235,56.300 289.500 C 56.243 268.765,56.196 285.730,56.196 327.200 M373.796 328.000 C 373.796 368.150,373.843 384.575,373.900 364.500 C 373.957 344.425,373.957 311.575,373.900 291.500 C 373.843 271.425,373.796 287.850,373.796 328.000 M179.067 303.867 C 178.920 304.013,178.800 320.393,178.800 340.267 L 178.800 376.400 179.900 376.375 C 180.959 376.350,180.967 376.336,180.098 375.987 L 179.196 375.624 179.298 339.912 L 179.400 304.200 203.300 304.200 C 216.445 304.200,227.200 304.065,227.200 303.900 C 227.200 303.529,179.437 303.496,179.067 303.867 M373.271 404.400 C 373.227 405.610,373.106 407.320,373.002 408.200 L 372.812 409.800 373.222 408.200 C 373.447 407.320,373.568 405.610,373.491 404.400 L 373.351 402.200 373.271 404.400 M32.509 404.400 C 32.509 405.390,32.587 405.795,32.682 405.300 C 32.778 404.805,32.778 403.995,32.682 403.500 C 32.587 403.005,32.509 403.410,32.509 404.400 M56.509 404.400 C 56.509 405.390,56.587 405.795,56.682 405.300 C 56.778 404.805,56.778 403.995,56.682 403.500 C 56.587 403.005,56.509 403.410,56.509 404.400 M32.887 408.200 C 32.883 408.860,33.024 409.850,33.200 410.400 L 33.520 411.400 33.513 410.400 C 33.509 409.850,33.368 408.860,33.200 408.200 L 32.895 407.000 32.887 408.200 M347.650 410.650 C 347.386 411.229,347.262 411.795,347.374 411.907 C 347.486 412.019,347.768 411.611,348.000 411.000 C 348.549 409.557,348.273 409.282,347.650 410.650 M372.046 412.867 C 372.021 413.234,371.896 413.864,371.770 414.267 C 371.552 414.962,371.563 414.963,371.997 414.287 C 372.248 413.896,372.373 413.266,372.273 412.887 C 372.111 412.268,372.088 412.266,372.046 412.867 M34.006 413.833 C 34.009 414.255,34.195 414.870,34.418 415.200 C 34.715 415.638,34.752 415.476,34.556 414.600 C 34.227 413.129,33.998 412.810,34.006 413.833 M60.314 415.000 C 60.541 415.440,61.238 416.249,61.863 416.799 L 63.000 417.797 61.803 416.399 C 59.907 414.182,59.880 414.158,60.314 415.000 M345.600 414.787 C 345.600 415.000,344.262 416.530,342.626 418.187 C 340.990 419.844,339.802 421.200,339.986 421.200 C 340.424 421.200,346.000 415.228,346.000 414.759 C 346.000 414.562,345.910 414.400,345.800 414.400 C 345.690 414.400,345.600 414.574,345.600 414.787 M370.471 417.671 C 369.369 420.897,369.622 421.150,370.800 418.000 C 371.299 416.666,371.620 415.487,371.513 415.380 C 371.406 415.273,370.937 416.304,370.471 417.671 M34.848 416.400 C 34.842 416.730,35.083 417.540,35.386 418.200 C 36.093 419.745,36.103 419.026,35.400 417.200 C 35.103 416.430,34.855 416.070,34.848 416.400 M63.888 419.230 C 64.596 419.991,65.766 420.951,66.488 421.364 C 68.041 422.252,67.746 421.943,64.800 419.598 C 62.820 418.023,62.729 417.986,63.888 419.230 M36.000 419.743 C 36.000 420.178,38.787 425.600,39.010 425.600 C 39.120 425.600,38.557 424.295,37.758 422.700 C 36.260 419.707,36.000 419.270,36.000 419.743 M367.800 423.600 C 367.024 425.140,366.480 426.400,366.590 426.400 C 366.700 426.400,367.424 425.140,368.200 423.600 C 368.976 422.060,369.520 420.800,369.410 420.800 C 369.300 420.800,368.576 422.060,367.800 423.600 M70.800 423.800 C 71.350 424.114,71.980 424.372,72.200 424.372 C 72.420 424.372,72.150 424.114,71.600 423.800 C 71.050 423.486,70.420 423.228,70.200 423.228 C 69.980 423.228,70.250 423.486,70.800 423.800 M331.200 424.800 L 330.200 425.120 331.276 425.160 C 331.868 425.182,332.464 425.020,332.600 424.800 C 332.881 424.345,332.620 424.345,331.200 424.800 M79.300 425.876 C 79.685 425.976,80.315 425.976,80.700 425.876 C 81.085 425.775,80.770 425.693,80.000 425.693 C 79.230 425.693,78.915 425.775,79.300 425.876 M324.700 425.882 C 325.195 425.978,326.005 425.978,326.500 425.882 C 326.995 425.787,326.590 425.709,325.600 425.709 C 324.610 425.709,324.205 425.787,324.700 425.882 M364.985 428.500 C 364.368 429.435,364.120 429.989,364.432 429.731 C 365.033 429.234,366.564 426.800,366.276 426.800 C 366.183 426.800,365.602 427.565,364.985 428.500 M40.757 428.700 C 41.517 430.078,47.521 436.670,49.243 438.016 C 50.374 438.900,49.924 438.322,47.981 436.395 C 44.403 432.846,41.200 429.096,41.200 428.457 C 41.200 428.206,41.014 428.000,40.786 428.000 C 40.511 428.000,40.502 428.236,40.757 428.700 M361.302 432.975 C 360.809 433.248,360.496 433.563,360.609 433.675 C 360.721 433.787,359.898 434.734,358.780 435.780 C 357.662 436.826,356.814 437.748,356.896 437.829 C 356.977 437.911,358.289 436.722,359.811 435.189 C 361.333 433.655,362.493 432.418,362.389 432.439 C 362.285 432.461,361.796 432.702,361.302 432.975 M51.379 439.566 C 51.680 440.052,55.200 442.532,55.200 442.257 C 55.200 442.157,54.281 441.415,53.158 440.608 C 52.035 439.801,51.235 439.332,51.379 439.566 M55.600 442.590 C 55.600 442.700,56.860 443.424,58.400 444.200 C 59.940 444.976,61.200 445.520,61.200 445.410 C 61.200 445.300,59.940 444.576,58.400 443.800 C 56.860 443.024,55.600 442.480,55.600 442.590 M346.727 444.135 C 345.037 445.044,343.713 445.847,343.786 445.919 C 343.957 446.090,350.400 442.852,350.400 442.596 C 350.400 442.230,349.804 442.480,346.727 444.135 M335.200 448.400 C 334.396 448.657,334.357 448.723,335.000 448.732 C 335.440 448.738,336.160 448.589,336.600 448.400 C 337.619 447.962,336.568 447.962,335.200 448.400 M76.000 449.660 C 78.818 449.994,324.466 449.984,328.200 449.650 C 329.740 449.513,273.130 449.400,202.400 449.400 C 131.670 449.400,74.790 449.517,76.000 449.660 " stroke="none" fill="#77c4c2" fill-rule="evenodd"></path><path id="path3" d="M190.705 11.483 C 191.202 11.579,191.922 11.575,192.305 11.475 C 192.687 11.375,192.280 11.296,191.400 11.301 C 190.520 11.305,190.207 11.387,190.705 11.483 M214.300 11.482 C 214.795 11.578,215.605 11.578,216.100 11.482 C 216.595 11.387,216.190 11.309,215.200 11.309 C 214.210 11.309,213.805 11.387,214.300 11.482 M194.705 35.483 C 195.202 35.579,195.922 35.575,196.305 35.475 C 196.687 35.375,196.280 35.296,195.400 35.301 C 194.520 35.305,194.207 35.387,194.705 35.483 M210.500 35.476 C 210.885 35.576,211.515 35.576,211.900 35.476 C 212.285 35.375,211.970 35.293,211.200 35.293 C 210.430 35.293,210.115 35.375,210.500 35.476 M122.118 41.500 C 119.673 43.872,119.543 44.043,121.562 42.229 C 125.478 38.708,125.799 38.400,125.545 38.400 C 125.417 38.400,123.875 39.795,122.118 41.500 M283.200 40.925 C 283.200 40.994,283.785 41.579,284.500 42.225 L 285.800 43.400 284.625 42.100 C 283.530 40.888,283.200 40.616,283.200 40.925 M115.381 47.700 L 113.800 49.400 115.500 47.819 C 116.435 46.949,117.200 46.184,117.200 46.119 C 117.200 45.816,116.852 46.119,115.381 47.700 M152.100 49.246 C 150.737 50.119,150.295 50.706,151.500 50.043 C 152.418 49.539,153.856 48.427,153.600 48.419 C 153.490 48.416,152.815 48.788,152.100 49.246 M293.800 51.600 C 294.659 52.480,295.452 53.200,295.562 53.200 C 295.672 53.200,295.059 52.480,294.200 51.600 C 293.341 50.720,292.548 50.000,292.438 50.000 C 292.328 50.000,292.941 50.720,293.800 51.600 M111.375 52.100 L 110.200 53.400 111.500 52.225 C 112.712 51.130,112.984 50.800,112.675 50.800 C 112.606 50.800,112.021 51.385,111.375 52.100 M133.600 63.800 C 132.628 64.790,131.923 65.600,132.033 65.600 C 132.143 65.600,133.028 64.790,134.000 63.800 C 134.972 62.810,135.677 62.000,135.567 62.000 C 135.457 62.000,134.572 62.810,133.600 63.800 M303.237 63.600 C 304.396 65.396,304.400 65.401,304.398 64.967 C 304.397 64.765,303.932 64.060,303.365 63.400 L 302.334 62.200 303.237 63.600 M129.578 68.300 L 128.200 69.800 129.700 68.422 C 130.525 67.663,131.200 66.988,131.200 66.922 C 131.200 66.616,130.862 66.904,129.578 68.300 M107.849 109.415 C 107.712 109.773,107.615 110.366,107.634 110.733 C 107.653 111.100,107.827 110.869,108.021 110.220 C 108.398 108.958,108.265 108.333,107.849 109.415 M82.656 110.484 C 82.521 110.988,82.427 111.760,82.446 112.200 C 82.465 112.640,82.645 112.298,82.846 111.440 C 83.236 109.778,83.070 108.940,82.656 110.484 M81.314 122.600 C 81.317 123.700,81.395 124.103,81.487 123.495 C 81.579 122.886,81.577 121.986,81.482 121.495 C 81.387 121.003,81.311 121.500,81.314 122.600 M105.701 124.600 C 105.705 125.480,105.787 125.793,105.883 125.295 C 105.979 124.798,105.975 124.078,105.875 123.695 C 105.775 123.313,105.696 123.720,105.701 124.600 M324.924 127.400 C 324.926 128.720,325.001 129.212,325.090 128.493 C 325.179 127.774,325.177 126.694,325.086 126.093 C 324.995 125.492,324.922 126.080,324.924 127.400 M105.392 165.000 C 105.392 185.900,105.441 194.509,105.500 184.130 C 105.559 173.752,105.559 156.652,105.500 146.130 C 105.441 135.609,105.392 144.100,105.392 165.000 M300.592 166.800 C 300.592 188.470,300.641 197.335,300.700 186.500 C 300.759 175.665,300.759 157.935,300.700 147.100 C 300.641 136.265,300.592 145.130,300.592 166.800 M80.800 167.880 C 80.690 188.824,80.736 205.824,80.902 205.658 C 81.068 205.492,81.158 188.356,81.102 167.578 L 81.000 129.800 80.800 167.880 M46.185 220.500 L 44.200 222.600 46.300 220.615 C 47.455 219.523,48.400 218.578,48.400 218.515 C 48.400 218.217,48.029 218.549,46.185 220.500 M359.800 220.800 C 360.659 221.680,361.452 222.400,361.562 222.400 C 361.672 222.400,361.059 221.680,360.200 220.800 C 359.341 219.920,358.548 219.200,358.438 219.200 C 358.328 219.200,358.941 219.920,359.800 220.800 M329.800 230.800 C 330.240 230.989,330.870 231.144,331.200 231.144 C 331.578 231.144,331.504 231.017,331.000 230.800 C 330.560 230.611,329.930 230.456,329.600 230.456 C 329.222 230.456,329.296 230.583,329.800 230.800 M64.271 236.900 L 61.734 239.400 64.167 237.227 C 65.505 236.032,66.771 234.907,66.980 234.727 C 67.189 234.547,67.236 234.400,67.084 234.400 C 66.932 234.400,65.666 235.525,64.271 236.900 M372.828 246.033 C 372.844 246.565,373.019 247.360,373.219 247.800 C 373.471 248.358,373.507 248.115,373.338 247.000 C 373.055 245.143,372.787 244.636,372.828 246.033 M32.196 327.600 C 32.196 370.390,32.243 387.895,32.300 366.500 C 32.357 345.105,32.357 310.095,32.300 288.700 C 32.243 267.305,32.196 284.810,32.196 327.600 M56.596 327.200 C 56.596 368.890,56.643 385.945,56.700 365.100 C 56.757 344.255,56.757 310.145,56.700 289.300 C 56.643 268.455,56.596 285.510,56.596 327.200 M373.714 253.400 C 373.717 254.500,373.795 254.903,373.887 254.295 C 373.979 253.686,373.977 252.786,373.882 252.295 C 373.787 251.803,373.711 252.300,373.714 253.400 M178.524 306.600 C 178.526 307.920,178.601 308.412,178.690 307.693 C 178.779 306.974,178.777 305.894,178.686 305.293 C 178.595 304.692,178.522 305.280,178.524 306.600 M227.298 341.300 L 227.200 376.400 203.029 376.400 C 181.755 376.400,178.836 376.327,178.670 375.792 C 178.538 375.367,178.501 375.397,178.546 375.892 C 178.630 376.813,227.065 377.220,227.415 376.303 C 227.520 376.026,227.559 360.140,227.501 341.000 L 227.396 306.200 227.298 341.300 M178.591 342.000 C 178.591 359.930,178.640 367.265,178.700 358.300 C 178.760 349.335,178.760 334.665,178.700 325.700 C 178.640 316.735,178.591 324.070,178.591 342.000 M373.724 403.000 C 373.726 404.320,373.801 404.812,373.890 404.093 C 373.979 403.374,373.977 402.294,373.886 401.693 C 373.795 401.092,373.722 401.680,373.724 403.000 M33.206 411.833 C 33.209 412.255,33.395 412.870,33.618 413.200 C 33.915 413.638,33.952 413.476,33.756 412.600 C 33.427 411.129,33.198 410.810,33.206 411.833 M359.578 435.500 L 358.200 437.000 359.700 435.622 C 361.096 434.338,361.384 434.000,361.078 434.000 C 361.012 434.000,360.337 434.675,359.578 435.500 M46.600 436.000 C 47.459 436.880,48.252 437.600,48.362 437.600 C 48.472 437.600,47.859 436.880,47.000 436.000 C 46.141 435.120,45.348 434.400,45.238 434.400 C 45.128 434.400,45.741 435.120,46.600 436.000 M326.705 449.883 C 327.202 449.979,327.922 449.975,328.305 449.875 C 328.687 449.775,328.280 449.696,327.400 449.701 C 326.520 449.705,326.207 449.787,326.705 449.883 " stroke="none" fill="#90d5d3" fill-rule="evenodd"></path><path id="path4" d="M193.515 10.728 C 193.138 10.878,197.586 11.000,203.400 11.000 C 209.214 11.000,213.662 10.878,213.285 10.728 C 212.908 10.579,208.460 10.456,203.400 10.456 C 198.340 10.456,193.892 10.579,193.515 10.728 M185.400 11.600 L 183.800 11.886 185.400 11.920 C 186.280 11.939,187.720 11.805,188.600 11.623 L 190.200 11.292 188.600 11.303 C 187.720 11.309,186.280 11.442,185.400 11.600 M217.800 11.600 C 218.460 11.768,219.630 11.906,220.400 11.907 L 221.800 11.908 220.200 11.577 C 218.045 11.131,216.034 11.151,217.800 11.600 M178.400 12.800 L 177.400 13.120 178.400 13.120 C 178.950 13.120,179.850 12.976,180.400 12.800 L 181.400 12.480 180.400 12.480 C 179.850 12.480,178.950 12.624,178.400 12.800 M225.600 12.800 C 226.150 12.976,227.050 13.120,227.600 13.120 L 228.600 13.120 227.600 12.800 C 227.050 12.624,226.150 12.480,225.600 12.480 L 224.600 12.480 225.600 12.800 M174.696 13.584 C 173.043 13.904,172.218 14.418,173.433 14.369 C 174.373 14.332,177.640 13.282,176.800 13.288 C 176.470 13.290,175.523 13.423,174.696 13.584 M229.400 13.550 C 229.840 13.735,230.920 13.999,231.800 14.137 C 232.815 14.295,233.108 14.264,232.600 14.050 C 232.160 13.865,231.080 13.601,230.200 13.463 C 229.185 13.305,228.892 13.336,229.400 13.550 M170.400 14.688 C 169.850 14.787,169.220 15.045,169.000 15.262 C 168.584 15.673,170.246 15.378,171.800 14.766 C 172.655 14.429,172.036 14.395,170.400 14.688 M234.600 14.747 C 236.027 15.343,237.828 15.684,237.400 15.277 C 237.180 15.068,236.280 14.788,235.400 14.655 C 234.383 14.501,234.092 14.535,234.600 14.747 M166.056 16.059 C 165.317 16.272,164.787 16.520,164.879 16.612 C 165.081 16.814,168.000 16.037,168.000 15.781 C 168.000 15.546,167.682 15.591,166.056 16.059 M238.600 15.939 C 239.837 16.468,241.910 16.877,241.200 16.451 C 240.870 16.254,239.970 15.980,239.200 15.844 C 238.256 15.677,238.060 15.708,238.600 15.939 M161.600 17.487 C 160.610 17.833,159.549 18.184,159.243 18.267 C 158.936 18.351,158.787 18.520,158.911 18.644 C 159.131 18.865,164.400 17.235,164.400 16.946 C 164.400 16.667,163.390 16.862,161.600 17.487 M242.400 17.200 C 242.730 17.413,243.270 17.588,243.600 17.588 C 244.133 17.588,244.133 17.545,243.600 17.200 C 243.270 16.987,242.730 16.812,242.400 16.812 C 241.867 16.812,241.867 16.855,242.400 17.200 M244.800 17.946 C 245.774 18.526,247.458 18.947,247.000 18.497 C 246.780 18.280,246.060 17.988,245.400 17.846 C 244.617 17.678,244.408 17.713,244.800 17.946 M156.576 19.395 C 155.866 19.938,155.911 19.952,157.100 19.555 C 158.457 19.103,158.768 18.800,157.876 18.800 C 157.589 18.800,157.004 19.068,156.576 19.395 M249.400 19.763 C 250.500 20.310,253.650 21.837,256.400 23.156 C 259.150 24.475,262.165 26.024,263.100 26.600 C 264.035 27.175,264.800 27.497,264.800 27.317 C 264.800 27.136,263.945 26.524,262.900 25.956 C 261.855 25.389,260.010 24.390,258.800 23.738 C 256.721 22.618,249.297 19.321,248.000 18.943 C 247.670 18.847,248.300 19.216,249.400 19.763 M151.600 21.537 C 144.793 24.944,134.367 30.980,134.067 31.686 C 133.993 31.859,133.772 32.000,133.575 32.000 C 133.378 32.000,132.268 32.732,131.108 33.627 C 129.949 34.522,127.722 36.214,126.160 37.386 C 123.120 39.667,112.034 50.505,109.395 53.776 C 108.518 54.863,107.336 56.303,106.768 56.976 C 104.746 59.373,101.792 63.600,102.139 63.600 C 102.241 63.600,103.286 62.295,104.462 60.700 C 116.466 44.416,131.669 31.848,150.600 22.560 C 153.460 21.157,155.530 20.015,155.200 20.022 C 154.870 20.029,153.250 20.711,151.600 21.537 M268.352 29.659 C 280.177 37.211,292.278 48.389,300.223 59.100 C 304.048 64.258,304.757 65.106,303.986 63.600 C 301.589 58.922,289.971 45.962,282.639 39.788 C 281.341 38.695,279.946 37.485,279.539 37.100 C 279.133 36.715,278.702 36.400,278.583 36.400 C 278.464 36.400,277.969 36.015,277.483 35.545 C 276.399 34.496,266.704 28.076,265.715 27.752 C 265.322 27.624,266.509 28.482,268.352 29.659 M200.120 35.498 C 202.055 35.572,205.115 35.571,206.920 35.497 C 208.724 35.423,207.140 35.363,203.400 35.364 C 199.660 35.364,198.184 35.425,200.120 35.498 M193.900 35.882 C 194.395 35.978,195.205 35.978,195.700 35.882 C 196.195 35.787,195.790 35.709,194.800 35.709 C 193.810 35.709,193.405 35.787,193.900 35.882 M211.100 35.882 C 211.595 35.978,212.405 35.978,212.900 35.882 C 213.395 35.787,212.990 35.709,212.000 35.709 C 211.010 35.709,210.605 35.787,211.100 35.882 M187.400 36.400 C 186.253 36.692,186.271 36.706,187.800 36.725 C 188.680 36.735,189.760 36.589,190.200 36.400 C 191.253 35.947,189.179 35.947,187.400 36.400 M216.200 36.400 C 216.640 36.589,217.720 36.736,218.600 36.726 L 220.200 36.708 218.600 36.377 C 217.720 36.195,216.640 36.048,216.200 36.051 L 215.400 36.056 216.200 36.400 M222.200 37.408 C 223.300 37.725,224.470 37.983,224.800 37.980 C 226.106 37.970,224.198 37.299,222.200 37.066 L 220.200 36.832 222.200 37.408 M181.600 37.600 C 180.842 38.090,182.070 38.090,183.600 37.600 C 184.580 37.286,184.576 37.279,183.400 37.246 C 182.740 37.227,181.930 37.387,181.600 37.600 M177.656 38.459 C 176.917 38.672,176.404 38.937,176.516 39.049 C 176.745 39.279,180.000 38.471,180.000 38.185 C 180.000 37.920,179.203 38.014,177.656 38.459 M227.400 38.598 C 228.060 38.909,228.960 39.161,229.400 39.157 L 230.200 39.149 229.400 38.834 C 228.960 38.661,228.060 38.410,227.400 38.276 L 226.200 38.033 227.400 38.598 M173.700 39.648 C 172.985 39.854,172.400 40.103,172.400 40.201 C 172.400 40.490,174.964 39.927,175.380 39.547 C 175.848 39.120,175.445 39.144,173.700 39.648 M230.600 39.530 C 230.820 39.742,231.630 40.033,232.400 40.175 C 233.311 40.344,233.590 40.308,233.200 40.071 C 232.288 39.519,230.121 39.068,230.600 39.530 M168.888 41.299 C 167.726 41.745,166.860 42.194,166.964 42.297 C 167.182 42.515,170.817 41.228,171.380 40.734 C 171.952 40.232,171.268 40.387,168.888 41.299 M234.506 40.609 C 234.895 41.037,241.667 43.666,241.866 43.467 C 241.948 43.386,240.526 42.730,238.707 42.010 C 234.321 40.275,234.150 40.218,234.506 40.609 M165.000 42.986 C 164.340 43.288,164.081 43.550,164.424 43.568 C 164.766 43.585,165.396 43.336,165.824 43.013 C 166.788 42.283,166.551 42.276,165.000 42.986 M159.058 45.645 C 156.890 46.748,155.193 47.727,155.287 47.821 C 155.470 48.004,163.600 44.034,163.600 43.762 C 163.600 43.407,162.842 43.721,159.058 45.645 M242.400 43.771 C 242.400 44.096,248.051 46.882,248.269 46.664 C 248.372 46.562,247.228 45.887,245.728 45.166 C 244.228 44.444,242.865 43.786,242.700 43.703 C 242.535 43.621,242.400 43.651,242.400 43.771 M249.400 47.398 C 249.840 47.764,251.100 48.525,252.200 49.089 C 253.300 49.652,254.757 50.538,255.438 51.057 C 256.119 51.576,256.807 52.000,256.968 52.000 C 257.129 52.000,258.372 52.850,259.730 53.890 C 261.089 54.929,262.380 55.909,262.600 56.068 C 271.824 62.710,283.743 77.173,289.492 88.698 C 290.506 90.733,291.407 92.326,291.494 92.239 C 291.710 92.024,289.251 87.195,286.752 82.925 C 278.616 69.026,264.621 55.290,251.400 48.228 C 249.860 47.405,248.960 47.032,249.400 47.398 M151.298 50.083 C 149.482 51.208,148.076 52.209,148.174 52.308 C 148.381 52.514,154.296 48.892,154.627 48.357 C 154.956 47.825,154.869 47.870,151.298 50.083 M143.201 55.719 C 133.667 62.949,119.726 79.412,117.050 86.600 C 116.557 87.926,117.316 86.846,120.004 82.400 C 123.820 76.088,127.056 71.848,132.063 66.600 C 133.113 65.500,134.293 64.225,134.686 63.767 C 135.462 62.861,138.569 60.110,140.971 58.200 C 141.802 57.540,142.688 56.811,142.940 56.581 C 143.193 56.350,144.361 55.405,145.536 54.481 C 149.130 51.653,147.245 52.652,143.201 55.719 M99.068 67.841 C 97.793 69.954,96.837 71.770,96.945 71.878 C 97.053 71.986,97.449 71.473,97.825 70.737 C 98.201 70.002,99.290 68.185,100.246 66.700 C 101.202 65.215,101.850 64.000,101.686 64.000 C 101.522 64.000,100.344 65.728,99.068 67.841 M304.400 64.945 C 304.400 65.024,305.265 66.419,306.323 68.045 C 307.380 69.670,308.637 71.630,309.116 72.400 C 309.595 73.170,309.990 73.641,309.993 73.447 C 310.001 73.054,309.092 71.500,306.513 67.500 C 304.988 65.135,304.400 64.424,304.400 64.945 M311.989 77.951 C 313.127 80.235,314.231 82.555,314.441 83.107 C 314.651 83.659,314.927 84.007,315.054 83.879 C 315.303 83.631,311.030 74.870,310.334 74.200 C 310.105 73.980,310.850 75.668,311.989 77.951 M94.832 75.139 C 94.179 76.360,94.314 76.700,95.041 75.663 C 95.393 75.160,95.588 74.654,95.473 74.540 C 95.359 74.425,95.070 74.695,94.832 75.139 M93.725 77.290 C 93.511 77.571,93.051 78.430,92.703 79.200 C 92.354 79.970,91.604 81.623,91.035 82.874 C 89.180 86.952,89.991 85.912,92.184 81.400 C 94.196 77.261,94.630 76.104,93.725 77.290 M315.400 85.200 C 315.559 85.750,315.870 86.380,316.090 86.600 C 316.357 86.867,316.393 86.667,316.200 86.000 C 316.041 85.450,315.730 84.820,315.510 84.600 C 315.243 84.333,315.207 84.533,315.400 85.200 M89.263 86.845 C 87.821 90.672,86.800 93.734,86.925 93.858 C 87.005 93.939,87.723 92.256,88.519 90.119 C 89.314 87.981,89.888 86.155,89.794 86.061 C 89.700 85.966,89.460 86.319,89.263 86.845 M316.603 88.000 C 317.077 89.615,317.649 90.377,317.354 89.000 C 317.212 88.340,316.920 87.620,316.703 87.400 C 316.445 87.137,316.411 87.343,316.603 88.000 M114.551 91.436 C 112.546 95.723,111.499 98.432,111.749 98.683 C 111.836 98.770,112.113 98.252,112.364 97.533 C 113.016 95.661,114.009 93.403,115.487 90.430 C 116.195 89.006,116.691 87.758,116.590 87.656 C 116.488 87.555,115.571 89.256,114.551 91.436 M317.612 90.800 C 317.612 91.130,317.787 91.670,318.000 92.000 C 318.345 92.533,318.388 92.533,318.388 92.000 C 318.388 91.670,318.213 91.130,318.000 90.800 C 317.655 90.267,317.612 90.267,317.612 90.800 M292.067 94.020 C 292.301 94.692,292.567 95.167,292.657 95.076 C 292.856 94.878,292.101 92.800,291.831 92.800 C 291.727 92.800,291.833 93.349,292.067 94.020 M318.670 93.800 C 318.801 94.460,319.058 95.270,319.242 95.600 C 319.841 96.677,319.635 95.150,318.998 93.800 L 318.433 92.600 318.670 93.800 M86.000 96.000 C 85.411 98.189,85.723 98.501,86.364 96.364 C 86.634 95.461,86.765 94.631,86.654 94.521 C 86.543 94.410,86.249 95.076,86.000 96.000 M293.000 96.400 C 293.159 96.950,293.470 97.580,293.690 97.800 C 293.957 98.067,293.993 97.867,293.800 97.200 C 293.641 96.650,293.330 96.020,293.110 95.800 C 292.843 95.533,292.807 95.733,293.000 96.400 M319.854 97.400 C 320.274 99.303,320.848 100.446,320.556 98.800 C 320.420 98.030,320.146 97.130,319.949 96.800 C 319.714 96.408,319.681 96.616,319.854 97.400 M84.400 101.800 C 83.895 103.679,83.569 105.303,83.676 105.409 C 83.783 105.516,84.264 104.047,84.745 102.145 C 85.227 100.244,85.553 98.619,85.469 98.536 C 85.386 98.453,84.905 99.921,84.400 101.800 M294.051 98.800 C 294.043 99.130,294.283 99.940,294.586 100.600 C 294.888 101.260,295.142 101.530,295.149 101.200 C 295.157 100.870,294.917 100.060,294.614 99.400 C 294.312 98.740,294.058 98.470,294.051 98.800 M110.800 100.400 C 110.521 101.074,110.386 101.719,110.500 101.833 C 110.614 101.947,110.909 101.462,111.156 100.756 C 111.738 99.086,111.459 98.808,110.800 100.400 M321.031 101.800 C 321.545 103.941,322.004 104.714,321.745 103.000 C 321.612 102.120,321.332 101.220,321.123 101.000 C 320.882 100.746,320.848 101.038,321.031 101.800 M295.212 102.400 C 295.212 102.730,295.387 103.270,295.600 103.600 C 295.945 104.133,295.988 104.133,295.988 103.600 C 295.988 103.270,295.813 102.730,295.600 102.400 C 295.255 101.867,295.212 101.867,295.212 102.400 M109.298 105.305 C 108.310 108.690,107.824 111.049,108.372 109.800 C 108.960 108.461,110.492 102.758,110.312 102.579 C 110.219 102.486,109.763 103.713,109.298 105.305 M296.262 105.600 C 296.398 106.370,296.673 107.270,296.872 107.600 C 297.344 108.381,296.842 105.631,296.361 104.800 C 296.145 104.427,296.107 104.729,296.262 105.600 M322.068 105.800 C 322.074 106.240,322.224 107.050,322.400 107.600 L 322.720 108.600 322.732 107.600 C 322.738 107.050,322.589 106.240,322.400 105.800 L 322.056 105.000 322.068 105.800 M83.058 107.070 C 82.648 108.461,82.312 110.800,82.522 110.800 C 82.797 110.800,83.671 106.737,83.445 106.511 C 83.350 106.417,83.176 106.668,83.058 107.070 M297.452 110.200 C 297.585 111.300,297.846 112.364,298.032 112.565 C 298.425 112.989,298.042 110.185,297.545 109.000 C 297.340 108.511,297.304 108.979,297.452 110.200 M323.091 111.000 C 323.221 112.320,323.473 113.850,323.651 114.400 C 323.841 114.991,323.874 114.427,323.730 113.019 C 323.597 111.710,323.345 110.180,323.171 109.619 C 322.986 109.025,322.953 109.601,323.091 111.000 M107.382 112.982 C 107.229 114.002,107.194 114.927,107.304 115.037 C 107.414 115.147,107.629 114.402,107.782 113.382 C 107.935 112.361,107.970 111.437,107.860 111.327 C 107.750 111.217,107.535 111.961,107.382 112.982 M81.879 113.681 C 81.600 114.862,81.148 121.129,81.380 120.600 C 81.637 120.014,82.414 113.081,82.242 112.909 C 82.162 112.829,81.998 113.176,81.879 113.681 M298.475 115.000 C 298.486 115.440,298.632 116.340,298.800 117.000 L 299.105 118.200 299.125 117.000 C 299.135 116.340,298.989 115.440,298.800 115.000 L 298.456 114.200 298.475 115.000 M106.669 116.881 C 106.177 119.741,105.915 122.985,106.198 122.718 C 106.363 122.563,106.647 120.950,106.830 119.133 C 107.169 115.765,107.079 114.499,106.669 116.881 M324.231 118.600 C 324.762 123.686,325.166 125.531,324.936 121.820 C 324.815 119.851,324.559 117.871,324.369 117.420 C 324.141 116.880,324.094 117.282,324.231 118.600 M299.485 121.200 C 299.606 122.630,299.855 124.520,300.037 125.400 C 300.269 126.520,300.303 126.070,300.151 123.903 C 300.030 122.199,299.782 120.309,299.598 119.703 C 299.383 118.991,299.343 119.521,299.485 121.200 M80.662 126.100 C 80.520 127.915,80.404 146.545,80.402 167.500 L 80.400 205.600 78.700 205.623 C 77.765 205.636,76.280 205.808,75.400 206.005 C 74.194 206.276,74.589 206.311,77.000 206.147 C 78.760 206.027,80.323 205.810,80.473 205.664 C 80.678 205.465,81.163 122.800,80.959 122.800 C 80.937 122.800,80.803 124.285,80.662 126.100 M105.510 165.300 C 105.449 186.915,105.541 204.915,105.714 205.300 C 106.012 205.964,111.042 206.000,203.214 206.000 C 295.517 206.000,300.398 205.965,300.368 205.300 C 300.350 204.882,300.256 204.801,300.135 205.100 C 299.767 206.013,106.001 205.813,105.996 204.900 C 105.994 204.515,105.996 186.605,106.000 165.100 C 106.004 143.595,105.920 126.000,105.813 126.000 C 105.706 126.000,105.570 143.685,105.510 165.300 M325.246 205.046 C 325.197 205.953,327.160 206.456,330.356 206.354 L 331.800 206.308 330.200 205.977 C 329.320 205.795,327.938 205.636,327.129 205.623 C 326.078 205.607,325.607 205.401,325.476 204.900 C 325.330 204.341,325.283 204.370,325.246 205.046 M69.680 206.795 C 68.423 207.092,67.455 207.620,68.233 207.583 C 69.460 207.524,73.216 206.482,72.200 206.482 C 71.540 206.482,70.406 206.623,69.680 206.795 M334.200 206.808 C 337.266 207.552,337.840 207.635,337.200 207.244 C 336.870 207.041,335.700 206.773,334.600 206.648 C 332.659 206.427,332.647 206.432,334.200 206.808 M66.000 207.863 C 65.670 207.973,65.149 208.143,64.843 208.241 C 64.536 208.339,64.372 208.505,64.478 208.611 C 64.583 208.717,65.374 208.545,66.235 208.230 C 67.648 207.712,67.438 207.384,66.000 207.863 M339.947 208.253 C 340.687 208.576,341.387 208.746,341.502 208.631 C 341.743 208.390,339.782 207.584,339.074 207.633 C 338.813 207.651,339.206 207.930,339.947 208.253 M343.358 209.427 C 344.215 209.741,345.164 210.204,345.468 210.456 C 345.771 210.708,346.122 210.811,346.248 210.685 C 346.565 210.369,343.398 208.793,342.516 208.828 C 342.122 208.844,342.501 209.113,343.358 209.427 M58.404 211.054 C 51.619 214.830,47.775 218.017,41.762 224.848 C 40.204 226.619,36.191 233.524,36.526 233.859 C 36.630 233.963,37.319 232.859,38.058 231.404 C 41.943 223.752,49.753 216.158,58.600 211.429 C 61.588 209.832,61.944 209.597,61.367 209.605 C 61.165 209.607,59.832 210.259,58.404 211.054 M349.337 212.362 C 357.490 217.216,369.200 229.948,369.200 233.958 C 369.200 234.175,369.380 234.464,369.600 234.600 C 371.803 235.961,364.484 224.720,360.390 220.453 C 357.345 217.280,349.685 211.632,347.600 211.024 C 347.050 210.864,347.832 211.466,349.337 212.362 M76.315 230.728 C 75.938 230.878,132.946 231.000,203.000 231.000 C 273.054 231.000,330.062 230.878,329.685 230.728 C 329.308 230.579,272.300 230.456,203.000 230.456 C 133.700 230.456,76.692 230.579,76.315 230.728 M73.400 231.485 C 72.960 231.591,72.420 231.860,72.200 232.084 C 71.930 232.358,72.125 232.395,72.800 232.197 C 74.871 231.589,75.355 231.015,73.400 231.485 M332.200 231.798 C 333.550 232.435,335.077 232.641,334.000 232.042 C 333.670 231.858,332.860 231.601,332.200 231.470 L 331.000 231.233 332.200 231.798 M68.937 233.591 C 65.158 235.758,60.168 241.084,59.070 244.121 C 58.596 245.432,59.414 244.489,60.314 242.686 C 61.883 239.544,68.810 233.200,70.671 233.200 C 70.936 233.200,71.264 233.020,71.400 232.800 C 71.819 232.122,71.088 232.357,68.937 233.591 M335.344 232.896 C 335.753 233.173,336.923 233.936,337.944 234.592 C 341.645 236.969,345.959 241.903,346.613 244.508 C 346.763 245.108,347.050 245.600,347.249 245.600 C 347.717 245.600,346.785 243.380,345.475 241.372 C 343.274 237.998,339.693 234.819,336.240 233.173 C 335.338 232.743,334.935 232.618,335.344 232.896 M35.809 234.943 C 35.694 235.304,35.516 235.870,35.413 236.200 C 35.309 236.530,35.314 236.800,35.422 236.800 C 35.728 236.800,36.448 234.715,36.221 234.487 C 36.110 234.376,35.925 234.581,35.809 234.943 M370.203 236.000 C 370.680 237.625,371.292 238.396,370.997 237.000 C 370.857 236.340,370.556 235.620,370.327 235.400 C 370.040 235.124,370.001 235.311,370.203 236.000 M371.263 238.600 C 371.262 238.820,371.503 239.630,371.800 240.400 C 372.097 241.170,372.345 241.530,372.352 241.200 C 372.358 240.870,372.117 240.060,371.814 239.400 C 371.512 238.740,371.264 238.380,371.263 238.600 M33.473 241.353 C 33.323 241.745,33.211 242.366,33.225 242.733 C 33.242 243.175,33.381 243.074,33.637 242.434 C 33.849 241.903,33.961 241.282,33.885 241.054 C 33.809 240.827,33.624 240.961,33.473 241.353 M372.640 243.866 C 373.008 245.399,373.200 245.544,373.200 244.290 C 373.200 243.717,373.013 243.132,372.784 242.990 C 372.511 242.821,372.462 243.123,372.640 243.866 M32.669 244.670 C 32.355 245.796,31.898 250.225,32.119 250.000 C 32.380 249.734,33.214 244.281,33.023 244.089 C 32.940 244.007,32.781 244.268,32.669 244.670 M58.000 246.600 C 57.736 247.399,57.615 248.148,57.731 248.264 C 57.847 248.380,58.130 247.793,58.360 246.960 C 58.903 244.992,58.623 244.712,58.000 246.600 M347.862 247.600 C 347.998 248.370,348.273 249.270,348.472 249.600 C 348.944 250.381,348.442 247.631,347.961 246.800 C 347.745 246.427,347.707 246.729,347.862 247.600 M373.800 326.437 C 373.800 369.867,373.679 406.660,373.530 408.200 C 373.300 410.596,373.326 410.798,373.711 409.600 C 374.236 407.964,374.620 253.174,374.107 249.607 C 373.938 248.434,373.800 283.007,373.800 326.437 M57.056 249.684 C 56.921 250.188,56.830 251.230,56.852 252.000 C 56.886 253.134,56.962 252.989,57.252 251.239 C 57.620 249.025,57.496 248.043,57.056 249.684 M349.000 327.965 C 349.000 370.470,349.117 404.831,349.260 404.323 C 349.611 403.077,349.628 254.216,349.277 252.241 C 349.125 251.384,349.000 285.460,349.000 327.965 M178.184 303.700 C 178.079 303.975,178.040 320.580,178.097 340.600 L 178.200 377.000 202.900 377.103 C 216.485 377.160,227.600 377.070,227.600 376.903 C 227.600 376.736,216.575 376.600,203.100 376.600 L 178.600 376.600 178.493 341.000 C 178.435 321.420,178.484 304.992,178.602 304.494 L 178.818 303.588 203.209 303.694 C 216.624 303.752,227.600 303.665,227.600 303.500 C 227.600 302.938,178.399 303.137,178.184 303.700 M56.828 403.033 C 56.844 404.335,57.014 405.760,57.206 406.200 C 57.422 406.694,57.467 405.853,57.323 404.000 C 57.036 400.324,56.790 399.843,56.828 403.033 M32.235 407.527 C 32.351 408.917,32.609 410.447,32.808 410.927 C 33.208 411.891,32.954 409.437,32.360 406.600 C 32.097 405.347,32.070 405.548,32.235 407.527 M348.314 406.600 C 348.182 407.040,347.975 407.940,347.854 408.600 L 347.633 409.800 348.237 408.453 C 348.569 407.712,348.776 406.812,348.697 406.453 C 348.581 405.923,348.509 405.950,348.314 406.600 M57.865 408.600 C 58.664 412.544,64.310 419.753,68.300 421.926 C 70.535 423.142,70.497 422.767,68.252 421.452 C 64.533 419.272,60.651 414.301,58.060 408.400 C 57.638 407.439,57.631 407.447,57.865 408.600 M346.378 411.879 C 344.395 416.050,340.538 419.978,336.206 422.237 C 334.578 423.085,333.318 423.852,333.406 423.939 C 333.660 424.193,338.443 421.625,340.200 420.291 C 343.082 418.104,348.238 410.905,347.472 410.139 C 347.373 410.040,346.881 410.823,346.378 411.879 M372.629 412.229 C 372.481 412.815,372.451 413.384,372.561 413.494 C 372.671 413.604,372.881 413.215,373.029 412.629 C 373.176 412.042,373.206 411.473,373.096 411.363 C 372.986 411.253,372.776 411.642,372.629 412.229 M33.227 413.107 C 33.169 414.190,35.705 420.880,37.213 423.624 C 38.086 425.212,38.800 426.666,38.800 426.855 C 38.800 427.045,38.953 427.200,39.139 427.200 C 39.326 427.200,38.561 425.355,37.439 423.100 C 36.318 420.845,35.066 417.920,34.657 416.600 C 33.722 413.581,33.262 412.457,33.227 413.107 M371.680 415.880 C 371.088 417.809,371.375 418.095,372.000 416.200 C 372.264 415.401,372.402 414.669,372.307 414.574 C 372.212 414.478,371.930 415.066,371.680 415.880 M370.468 419.176 C 370.209 419.920,370.082 420.616,370.187 420.720 C 370.454 420.987,371.258 418.773,371.083 418.250 C 371.005 418.014,370.728 418.431,370.468 419.176 M369.330 421.843 C 368.785 423.274,365.888 428.201,364.711 429.700 C 364.063 430.525,363.690 431.200,363.882 431.200 C 364.592 431.200,370.301 421.767,369.858 421.325 C 369.726 421.193,369.489 421.426,369.330 421.843 M72.000 423.661 C 76.535 425.688,70.666 425.602,202.935 425.577 C 270.731 425.564,326.901 425.429,327.759 425.277 C 328.616 425.125,273.356 425.055,204.959 425.121 C 74.976 425.248,77.044 425.273,72.685 423.555 C 70.170 422.563,69.705 422.635,72.000 423.661 M330.400 424.400 L 329.400 424.720 330.400 424.732 C 330.950 424.738,331.760 424.589,332.200 424.400 L 333.000 424.056 332.200 424.068 C 331.760 424.074,330.950 424.224,330.400 424.400 M39.621 427.724 C 39.582 428.332,44.049 434.030,46.200 436.114 C 48.207 438.058,52.505 441.412,54.200 442.355 C 55.154 442.887,55.405 442.955,54.822 442.523 C 48.080 437.537,43.562 433.135,40.321 428.393 C 39.948 427.847,39.633 427.546,39.621 427.724 M360.200 434.916 C 358.440 436.731,356.280 438.804,355.400 439.522 C 354.520 440.240,354.169 440.654,354.621 440.442 C 356.198 439.701,364.415 431.558,363.534 431.608 C 363.460 431.612,361.960 433.100,360.200 434.916 M350.100 442.946 C 348.285 444.039,346.880 445.013,346.977 445.110 C 347.074 445.207,348.558 444.423,350.276 443.368 C 353.951 441.112,353.778 441.232,353.567 441.079 C 353.475 441.012,351.915 441.852,350.100 442.946 M56.200 443.529 C 56.767 444.097,61.622 446.512,61.813 446.320 C 61.900 446.233,60.583 445.479,58.886 444.645 C 57.189 443.810,55.980 443.308,56.200 443.529 M344.799 445.849 L 343.800 446.433 344.800 446.167 C 345.914 445.870,346.214 445.681,345.966 445.433 C 345.874 445.341,345.349 445.528,344.799 445.849 M62.600 446.800 C 62.736 447.020,63.242 447.187,63.724 447.172 C 64.569 447.145,64.571 447.131,63.800 446.800 C 62.699 446.327,62.308 446.327,62.600 446.800 M340.400 447.414 C 338.970 447.928,338.004 448.360,338.254 448.374 C 338.914 448.412,342.933 447.125,343.380 446.733 C 343.962 446.223,343.280 446.379,340.400 447.414 M65.020 447.558 C 65.229 447.755,66.030 448.023,66.800 448.154 L 68.200 448.393 66.800 447.827 C 65.126 447.150,64.484 447.053,65.020 447.558 M68.800 448.756 C 69.130 448.944,70.120 449.208,71.000 449.342 C 72.009 449.497,72.305 449.464,71.800 449.254 C 70.629 448.766,68.074 448.342,68.800 448.756 M334.600 449.021 L 332.600 449.565 334.600 449.344 C 336.495 449.136,338.675 448.386,337.200 448.451 C 336.870 448.465,335.700 448.722,334.600 449.021 M74.715 450.072 C 75.092 450.221,132.640 450.344,202.600 450.344 C 272.560 450.344,330.108 450.221,330.485 450.072 C 330.862 449.922,273.314 449.800,202.600 449.800 C 131.886 449.800,74.338 449.922,74.715 450.072 " stroke="none" fill="#b4ebea" fill-rule="evenodd"></path></g></svg>