<?xml version="1.0" encoding="utf-8"?>
<!-- Generator: Adobe Illustrator 22.1.0, SVG Export Plug-In . SVG Version: 6.00 Build 0)  -->
<svg version="1.1" id="Layer_1" xmlns="http://www.w3.org/2000/svg" xmlns:xlink="http://www.w3.org/1999/xlink" x="0px" y="0px"
	 viewBox="0 0 300 48" style="enable-background:new 0 0 300 48;" xml:space="preserve">
<style type="text/css">
	.st0{fill:none;}
	.st1{fill:#A2A2A3;}
	.st2{fill:#29BCB9;}
	.st3{fill:#D2D0CF;}
</style>
<g id="logoMobilePhlebotomy">
	<path class="st0" d="M54.6,0c0,0.7,0.1,1.5,0.1,2.2c0.9,1.2,1.2,2.8,0.9,4.3c0.4,1.1,0.6,2.2,0.5,3.2c0,0.3,0.1,0.7,0,1l0,0
		c0,0,0,0,0,0c0,0.2,0,0.4-0.1,0.5c-0.1,0.9-0.3,1.8-0.8,2.7c-0.9,1.8-3.1,2.6-5,2.4c-1.9-0.3-3.7-1.7-4.2-3.6
		c-0.5-1.9-0.7-3.8-0.6-5.7C45,4.8,44.8,2.4,44.6,0H0v48h300V0H54.6z"/>
	<g id="Logo">
		<path class="st1" d="M25.6,16.4c0-1.4,0.6-2.6,1.4-3.5l0,0c1.3-1.2,2-2.9,2-4.7c0-3.7-2.9-6.7-6.5-6.7S16,4.5,16,8.2
			c0,4.1,1.8,7.7,4.6,10.2c-0.6,2-2.5,3.5-4.7,3.5c-1.4,0-2.6-0.6-3.5-1.4l0,0c-1.2-1.2-2.9-1.9-4.7-1.9C4,18.4,1,21.4,1,25
			s3,6.5,6.7,6.5c4.1,0,7.7-1.8,10.1-4.6c0.1-0.1,0.2-0.2,0.3-0.3c1.8-2.2,2.8-4.9,2.9-7.9c2.2,1.8,4.9,2.9,7.9,2.9
			c0.1-0.1,0.1-0.2,0.3-0.3C27.1,20.6,25.6,18.7,25.6,16.4z M22.6,10.7c-1.5,0-2.7-1.2-2.7-2.7s1.2-2.7,2.7-2.7s2.7,1.2,2.7,2.7
			C25.3,9.5,24.1,10.7,22.6,10.7z"/>
		<g>
			<path class="st2" d="M26,29.4c-2.2-1.8-4.9-2.9-7.9-2.9c-0.1,0.1-0.1,0.2-0.3,0.3c2,0.6,3.5,2.5,3.5,4.7c0,1.4-0.6,2.6-1.4,3.5
				l0,0c-1.2,1.2-1.9,2.9-1.9,4.7c0,3.7,2.9,6.7,6.5,6.7s6.5-3,6.5-6.7c0-4.1-1.8-7.7-4.6-10.2C26.2,29.5,26.1,29.5,26,29.4z"/>
			<path class="st2" d="M77.5,16.3c-1.1,0-2,0.3-2.8,0.8C74,17.6,73.4,18.3,73,19c-0.7-1.8-2.2-2.8-4.6-2.8c-0.6,0-1.1,0.1-1.5,0.2
				c-0.4,0.2-0.9,0.3-1.2,0.6c-0.4,0.2-0.7,0.5-0.9,0.8s-0.5,0.6-0.6,0.9c0-0.1,0-0.3-0.1-0.5c0-0.2-0.1-0.4-0.1-0.6
				s-0.1-0.4-0.1-0.6c-0.1-0.2-0.1-0.3-0.2-0.4c-0.3-0.1-0.6-0.1-0.8-0.1c-0.3,0-0.6,0-0.9,0c-0.3,0-0.7,0-0.9,0
				c-0.3,0-0.6,0.1-0.8,0.1v15.5c0.7,0.1,1.4,0.2,2.1,0.2c0.7,0,1.4-0.1,2.1-0.2V24c0-0.8,0.1-1.5,0.2-2c0.2-0.5,0.4-0.9,0.6-1.2
				c0.3-0.3,0.6-0.5,0.9-0.6s0.7-0.2,1-0.2c0.8,0,1.4,0.3,1.6,0.9c0.3,0.6,0.4,1.4,0.4,2.5v8.8c0.7,0.1,1.4,0.2,2.1,0.2
				s1.4-0.1,2.1-0.2v-8.4c0-0.8,0.1-1.4,0.3-1.9c0.2-0.5,0.4-0.9,0.7-1.1c0.3-0.3,0.6-0.5,0.9-0.6s0.7-0.2,1-0.2
				c0.8,0,1.4,0.3,1.6,0.9c0.3,0.6,0.4,1.4,0.4,2.5v8.8c0.7,0.1,1.4,0.2,2.1,0.2s1.4-0.1,2.1-0.2v-9.9c0-2.1-0.4-3.6-1.2-4.5
				C80.6,16.8,79.3,16.3,77.5,16.3z"/>
			<path class="st2" d="M97.5,18.6c-0.6-0.7-1.4-1.3-2.3-1.7c-0.9-0.4-2-0.6-3.3-0.6s-2.4,0.2-3.3,0.6s-1.7,1-2.3,1.7
				c-0.6,0.7-1.1,1.6-1.4,2.6s-0.5,2.1-0.5,3.2s0.2,2.2,0.5,3.2s0.8,1.8,1.4,2.6c0.6,0.7,1.4,1.3,2.3,1.7c0.9,0.4,2,0.6,3.3,0.6
				s2.4-0.2,3.3-0.6s1.7-1,2.3-1.7c0.6-0.7,1.1-1.6,1.4-2.6s0.4-2,0.4-3.2c0-1.1-0.1-2.2-0.4-3.2S98.1,19.4,97.5,18.6z M94.3,28
				c-0.5,0.8-1.3,1.2-2.4,1.2S90,28.8,89.5,28c-0.5-0.8-0.7-2-0.7-3.6s0.2-2.8,0.7-3.6c0.5-0.8,1.3-1.2,2.4-1.2s1.9,0.4,2.4,1.2
				c0.5,0.8,0.7,2,0.7,3.6S94.8,27.2,94.3,28z"/>
			<path class="st2" d="M114,18.2c-0.6-0.7-1.2-1.1-2-1.5c-0.8-0.3-1.6-0.5-2.5-0.5s-1.7,0.2-2.4,0.5c-0.7,0.3-1.2,0.8-1.5,1.3v-7.9
				c-0.7-0.1-1.4-0.2-2.1-0.2s-1.4,0.1-2.1,0.2v21.4c0.4,0.1,0.8,0.3,1.3,0.4s0.9,0.2,1.4,0.3c0.5,0.1,1,0.1,1.5,0.2s1,0.1,1.4,0.1
				c1.4,0,2.6-0.2,3.7-0.6s2-0.9,2.8-1.7c0.8-0.7,1.3-1.6,1.7-2.6c0.4-1,0.6-2.2,0.6-3.5s-0.2-2.5-0.5-3.5
				C115,19.7,114.6,18.9,114,18.2z M110.3,27.8c-0.7,0.8-1.8,1.1-3.1,1.1c-0.3,0-0.6,0-0.8,0c-0.3,0-0.5-0.1-0.8-0.2v-5.6
				c0-1.1,0.3-2,0.8-2.5s1.2-0.8,2-0.8c1.1,0,1.9,0.4,2.3,1.1c0.5,0.8,0.7,1.8,0.7,3.3C111.4,25.9,111,27.1,110.3,27.8z"/>
			<path class="st2" d="M119.3,14.2c0.4,0,0.8,0,1.1,0c0.3,0,0.7,0,1.1,0s0.8-0.1,1.1-0.1c0.1-0.3,0.1-0.7,0.1-1s0-0.7,0-1
				s0-0.7,0-1s-0.1-0.7-0.1-1c-0.3-0.1-0.7-0.1-1.1-0.1s-0.8,0-1.1,0c-0.3,0-0.7,0-1.1,0s-0.8,0.1-1.1,0.1c-0.1,0.7-0.2,1.4-0.2,2
				c0,0.7,0.1,1.3,0.2,2C118.5,14.1,118.9,14.1,119.3,14.2z"/>
			<path class="st2" d="M116.6,18.2c0,0.3,0,0.5,0,0.8s0.1,0.6,0.1,0.8h2v12.3c0.7,0.1,1.4,0.2,2.1,0.2s1.4-0.1,2.1-0.2V16.7h-6.2
				C116.7,17.2,116.6,17.7,116.6,18.2z"/>
			<path class="st2" d="M132.5,28.9c-0.2,0-0.4,0-0.5,0c-0.4,0-0.7,0-0.9-0.1s-0.4-0.2-0.6-0.4c-0.1-0.2-0.3-0.5-0.3-0.9
				s-0.1-0.9-0.1-1.5V10.2c-0.7-0.1-1.4-0.2-2.1-0.2c-0.7,0-1.4,0.1-2.1,0.2v16.7c0,1.9,0.5,3.3,1.4,4.2c0.9,0.8,2.2,1.3,3.7,1.3
				c0.4,0,0.8,0,1.2-0.1s0.8-0.1,1.2-0.2c0-0.2,0.1-0.3,0.1-0.4s0-0.3,0-0.4c0-0.8-0.1-1.6-0.3-2.4
				C132.9,28.8,132.7,28.9,132.5,28.9z"/>
			<path class="st2" d="M147.5,20.8c-0.3-0.9-0.7-1.7-1.3-2.4s-1.3-1.2-2.1-1.6s-1.8-0.6-2.9-0.6c-1.2,0-2.3,0.2-3.3,0.6
				c-0.9,0.4-1.7,1-2.3,1.8c-0.6,0.7-1.1,1.6-1.4,2.6c-0.3,1-0.5,2.1-0.5,3.2c0,1.2,0.2,2.2,0.5,3.2s0.8,1.8,1.4,2.5
				c0.7,0.7,1.5,1.3,2.5,1.7c1,0.4,2.3,0.6,3.7,0.6c2,0,3.7-0.3,5.3-0.9c0-0.6-0.1-1.2-0.3-1.8c-0.2-0.6-0.3-1-0.6-1.4
				c-0.6,0.2-1.3,0.4-2,0.6c-0.7,0.1-1.4,0.2-2.1,0.2c-1.2,0-2.2-0.3-3-0.8s-1.2-1.4-1.3-2.6h9.9c0-0.2,0.1-0.5,0.1-0.9s0-0.7,0-1.1
				C148,22.7,147.8,21.7,147.5,20.8z M137.9,22.7c0.1-1,0.4-1.8,0.9-2.4s1.3-0.8,2.3-0.8c0.9,0,1.6,0.3,2.1,0.9s0.8,1.4,0.8,2.3
				H137.9z"/>
		</g>
		<g>
			<path class="st3" d="M39.3,16.5c-4.1,0-7.7,1.8-10.1,4.6c-0.1,0.1-0.2,0.2-0.3,0.3c-1.8,2.2-2.8,4.9-2.9,7.9
				c0.1,0.1,0.2,0.1,0.3,0.3c0.6-2,2.5-3.5,4.7-3.5c1.4,0,2.6,0.6,3.5,1.4l0,0c1.2,1.2,2.9,1.9,4.7,1.9c3.7,0,6.7-2.9,6.7-6.5
				S42.9,16.5,39.3,16.5z"/>
			<path class="st3" d="M162.1,18.3c-0.5-0.6-1.2-1.1-2-1.4s-1.6-0.4-2.6-0.4c-1.3,0-2.3,0.2-3.1,0.8c-0.8,0.5-1.4,1.1-1.8,1.7
				l-0.2-2.1c-0.1,0-0.3,0-0.4,0c-0.2,0-0.3,0-0.4,0c-0.1,0-0.3,0-0.4,0c-0.2,0-0.3,0-0.4,0v22.4c0.1,0,0.3,0,0.5,0s0.4,0,0.5,0
				s0.3,0,0.5,0s0.4,0,0.5,0V32c0.5,0.2,1,0.3,1.5,0.4c0.6,0.1,1.1,0.1,1.6,0.1c1.3,0,2.5-0.2,3.5-0.6s1.9-1,2.5-1.7
				c0.7-0.7,1.2-1.6,1.6-2.7c0.4-1.1,0.5-2.2,0.5-3.6s-0.2-2.4-0.5-3.4C163.1,19.7,162.6,18.9,162.1,18.3z M161.3,27.1
				c-0.3,0.8-0.7,1.5-1.2,2.1s-1.1,0.9-1.8,1.2c-0.7,0.2-1.4,0.4-2.2,0.4s-1.5,0-2-0.1s-1-0.2-1.4-0.4v-7c0-1,0.2-1.8,0.5-2.4
				s0.7-1.1,1.2-1.5s1-0.7,1.5-0.8c0.6-0.2,1.1-0.2,1.6-0.2c1.5,0,2.7,0.5,3.3,1.6c0.7,1,1,2.5,1,4.3
				C161.7,25.3,161.6,26.3,161.3,27.1z"/>
			<path class="st3" d="M174.1,16.5c-0.6,0-1.2,0.1-1.8,0.3c-0.5,0.2-1,0.4-1.4,0.7c-0.4,0.3-0.8,0.6-1.1,1s-0.6,0.7-0.8,1.1v-9.5
				c-0.1,0-0.3,0-0.5,0s-0.4,0-0.5,0s-0.3,0-0.5,0s-0.4,0-0.5,0v22c0.1,0,0.3,0,0.5,0s0.4,0,0.5,0s0.3,0,0.5,0s0.4,0,0.5,0v-7.7
				c0-1,0.1-1.9,0.4-2.7c0.2-0.8,0.6-1.4,1-1.9s1-0.9,1.6-1.2c0.6-0.3,1.3-0.4,2-0.4c1.1,0,1.9,0.4,2.4,1.1c0.6,0.7,0.8,2,0.8,3.7
				v9.1c0.1,0,0.3,0,0.5,0s0.4,0,0.5,0s0.3,0,0.5,0s0.4,0,0.5,0v-9.7c0-1.9-0.4-3.4-1.2-4.4C177.2,17,175.9,16.5,174.1,16.5z"/>
			<path class="st3" d="M188.1,30.6c-0.2,0-0.4,0.1-0.6,0.1c-0.2,0-0.5,0-0.7,0s-0.4,0-0.6,0c-0.2,0-0.4-0.1-0.6-0.2
				c-0.2-0.1-0.3-0.3-0.4-0.6c-0.1-0.3-0.2-0.7-0.2-1.2V10.1c-0.1,0-0.3,0-0.5,0s-0.4,0-0.5,0s-0.3,0-0.5,0s-0.4,0-0.5,0v19
				c0,0.7,0.1,1.3,0.3,1.7c0.2,0.4,0.5,0.8,0.8,1c0.3,0.2,0.7,0.4,1.1,0.5c0.4,0.1,0.8,0.1,1.3,0.1c0.3,0,0.6,0,1-0.1
				c0.4,0,0.7-0.1,0.9-0.2c0-0.2,0-0.5-0.1-0.8C188.3,31.1,188.2,30.8,188.1,30.6z"/>
			<path class="st3" d="M200.8,18.4c-0.5-0.6-1.2-1.1-2-1.4s-1.7-0.5-2.7-0.5c-1.2,0-2.2,0.2-3.1,0.6c-0.9,0.4-1.6,1-2.1,1.7
				s-1,1.6-1.2,2.6c-0.3,1-0.4,2-0.4,3.2s0.1,2.2,0.4,3.2s0.7,1.8,1.3,2.5s1.4,1.2,2.3,1.6c0.9,0.4,2.1,0.6,3.4,0.6
				c0.9,0,1.8-0.1,2.5-0.2s1.5-0.3,2-0.6c0-0.3-0.1-0.5-0.1-0.9c-0.1-0.3-0.1-0.6-0.2-0.8c-0.6,0.2-1.3,0.4-1.9,0.5
				c-0.7,0.1-1.4,0.2-2.1,0.2c-1.9,0-3.3-0.5-4.2-1.4c-0.9-1-1.4-2.5-1.4-4.5h10.9c0-0.2,0-0.4,0-0.7c0-0.3,0-0.5,0-0.7
				c0-1-0.1-1.9-0.4-2.8C201.7,19.8,201.3,19,200.8,18.4z M191.5,23.2c0.2-1.6,0.6-2.8,1.4-3.6s1.9-1.3,3.3-1.3
				c0.8,0,1.4,0.1,1.9,0.4s1,0.6,1.3,1.1c0.3,0.4,0.6,1,0.7,1.6s0.2,1.2,0.2,1.8H191.5z"/>
			<path class="st3" d="M217,18.3c-0.5-0.6-1.2-1.1-2-1.4s-1.6-0.4-2.6-0.4c-1.3,0-2.3,0.3-3.1,0.8s-1.4,1.1-1.8,1.7v-8.9
				c-0.1,0-0.3,0-0.5,0s-0.4,0-0.5,0s-0.3,0-0.5,0s-0.4,0-0.5,0v21.6c0.5,0.2,1.2,0.4,2.1,0.6c0.8,0.2,1.7,0.3,2.6,0.3
				c2.8,0,4.9-0.7,6.3-2.2c1.5-1.5,2.2-3.6,2.2-6.2c0-1.3-0.2-2.4-0.5-3.4C218,19.7,217.5,18.9,217,18.3z M216.1,27.1
				c-0.3,0.8-0.8,1.5-1.3,2.1s-1.2,0.9-1.9,1.2c-0.7,0.3-1.5,0.4-2.3,0.4c-0.6,0-1.1,0-1.6-0.1s-1-0.2-1.5-0.3v-7.1
				c0-1,0.2-1.8,0.5-2.4s0.7-1.1,1.2-1.5s1-0.6,1.5-0.8s1.1-0.2,1.6-0.2c1.5,0,2.7,0.5,3.3,1.6c0.7,1,1,2.5,1,4.3
				C216.6,25.3,216.5,26.3,216.1,27.1z"/>
			<path class="st3" d="M233.1,18.8c-0.6-0.7-1.3-1.3-2.1-1.7s-1.8-0.6-3-0.6s-2.1,0.2-3,0.6s-1.6,1-2.1,1.7c-0.6,0.7-1,1.6-1.3,2.5
				c-0.3,1-0.4,2-0.4,3.1s0.1,2.2,0.4,3.1c0.3,1,0.7,1.8,1.3,2.6c0.6,0.7,1.3,1.3,2.1,1.7c0.9,0.4,1.9,0.6,3,0.6s2.1-0.2,3-0.6
				s1.6-1,2.1-1.7c0.6-0.7,1-1.6,1.3-2.6s0.4-2,0.4-3.1s-0.1-2.2-0.4-3.1S233.7,19.5,233.1,18.8z M231.6,29.1
				c-0.8,1.1-2,1.7-3.6,1.7s-2.8-0.6-3.6-1.7s-1.2-2.6-1.2-4.6s0.4-3.5,1.2-4.6s2-1.7,3.6-1.7s2.8,0.6,3.6,1.7s1.2,2.6,1.2,4.6
				S232.4,28,231.6,29.1z"/>
			<path class="st3" d="M242.9,30.8c-0.3,0-0.6,0-0.8-0.1c-0.3,0-0.5-0.2-0.7-0.3c-0.2-0.2-0.4-0.4-0.5-0.7
				c-0.1-0.3-0.2-0.7-0.2-1.2v-10h4.1c0-0.1,0-0.2,0-0.4c0-0.2,0-0.3,0-0.5s0-0.3,0-0.5c0-0.1,0-0.3,0-0.4h-4.1V12h-0.1l-1.9,1.8
				v2.9h-2.6c0,0.1,0,0.2,0,0.4c0,0.1,0,0.3,0,0.5s0,0.3,0,0.5s0,0.3,0,0.4h2.6v10c0,1.4,0.4,2.4,1.1,3c0.7,0.6,1.6,0.9,2.8,0.9
				c1,0,1.8-0.1,2.5-0.3c-0.1-0.6-0.2-1.2-0.3-1.7C244.2,30.7,243.6,30.8,242.9,30.8z"/>
			<path class="st3" d="M258,18.8c-0.6-0.7-1.3-1.3-2.1-1.7s-1.8-0.6-3-0.6c-1.1,0-2.1,0.2-3,0.6s-1.6,1-2.1,1.7
				c-0.6,0.7-1,1.6-1.3,2.5c-0.3,1-0.4,2-0.4,3.1s0.1,2.2,0.4,3.1c0.3,1,0.7,1.8,1.3,2.6c0.6,0.7,1.3,1.3,2.1,1.7
				c0.8,0.4,1.9,0.6,3,0.6s2.1-0.2,3-0.6s1.6-1,2.1-1.7c0.6-0.7,1-1.6,1.3-2.6s0.4-2,0.4-3.1s-0.1-2.2-0.4-3.1S258.6,19.5,258,18.8z
				 M256.5,29.1c-0.8,1.1-2,1.7-3.6,1.7s-2.8-0.6-3.6-1.7s-1.2-2.6-1.2-4.6s0.4-3.5,1.2-4.6s2-1.7,3.6-1.7s2.8,0.6,3.6,1.7
				c0.8,1.1,1.2,2.6,1.2,4.6S257.3,28,256.5,29.1z"/>
			<path class="st3" d="M278,16.5c-0.6,0-1.1,0.1-1.6,0.3c-0.5,0.2-0.9,0.4-1.2,0.7c-0.4,0.3-0.7,0.6-1,0.9s-0.5,0.7-0.7,1
				c-0.2-0.4-0.4-0.8-0.6-1.1c-0.2-0.3-0.5-0.6-0.8-0.9c-0.3-0.2-0.7-0.4-1.1-0.6c-0.4-0.1-0.9-0.2-1.5-0.2s-1.2,0.1-1.7,0.3
				c-0.5,0.2-0.9,0.4-1.3,0.7c-0.4,0.3-0.7,0.6-1,1s-0.5,0.7-0.7,1.1c0-0.4,0-0.8,0-1.4c0-0.5-0.1-0.9-0.1-1.3c-0.2,0-0.3,0-0.4,0
				s-0.3,0-0.4,0s-0.3,0-0.4,0s-0.3,0-0.5,0v15.3c0.1,0,0.3,0,0.5,0s0.4,0,0.5,0s0.3,0,0.5,0s0.4,0,0.5,0v-7.7
				c0-0.9,0.1-1.8,0.3-2.5c0.2-0.8,0.5-1.4,0.9-2s0.8-1,1.3-1.3s1.1-0.5,1.7-0.5c0.9,0,1.6,0.4,2.1,1.1s0.7,1.9,0.7,3.4v9.4
				c0.1,0,0.3,0,0.5,0s0.4,0,0.5,0s0.3,0,0.5,0s0.4,0,0.5,0v-9c0-0.7,0.1-1.3,0.3-1.9c0.2-0.6,0.4-1.1,0.7-1.5
				c0.3-0.4,0.7-0.8,1.2-1.1c0.5-0.3,1-0.4,1.7-0.4c1.1,0,1.9,0.4,2.4,1.2c0.5,0.8,0.8,2,0.8,3.6v9.1c0.1,0,0.3,0,0.5,0s0.4,0,0.5,0
				s0.3,0,0.5,0s0.4,0,0.5,0v-9.7c0-1.9-0.4-3.4-1.2-4.4C281.1,17,279.8,16.5,278,16.5z"/>
			<path class="st3" d="M298.5,16.8c-0.2,0-0.4,0-0.5,0c-0.2,0-0.3,0-0.5,0s-0.4,0-0.5,0l-5,14.9l-5.1-14.9c-0.1,0-0.3,0-0.5,0
				s-0.4,0-0.6,0s-0.4,0-0.6,0s-0.4,0-0.5,0l5.5,15.3c0.1,0,0.3,0,0.5,0s0.4,0,0.6,0h0.6l-1.2,3.7c-0.3,0.8-0.6,1.3-0.9,1.6
				c-0.4,0.3-0.8,0.4-1.4,0.4c-0.4,0-0.8,0-1.1-0.1c-0.3-0.1-0.6-0.1-0.7-0.2c-0.3,0.5-0.4,1.1-0.4,1.7c0.3,0.1,0.6,0.2,1.1,0.2
				s0.9,0.1,1.3,0.1c0.9,0,1.7-0.2,2.3-0.7c0.7-0.4,1.2-1.2,1.5-2.3l6.7-19.8C298.9,16.8,298.7,16.8,298.5,16.8z"/>
		</g>
	</g>
</g>
</svg>
