<?xml version="1.0" encoding="utf-8"?>
<!-- Generator: Adobe Illustrator 22.1.0, SVG Export Plug-In . SVG Version: 6.00 Build 0)  -->
<svg version="1.1" id="Layer_1" xmlns="http://www.w3.org/2000/svg" xmlns:xlink="http://www.w3.org/1999/xlink" x="0px" y="0px"
	 viewBox="0 0 24 24" style="enable-background:new 0 0 24 24;" xml:space="preserve">
<style type="text/css">
	.st0{fill:none;}
</style>
<path class="st0" d="M163,109h24v24h-24V109z"/>
<rect x="10" y="16" width="4" height="2"/>
<path d="M14,6H3v2h10.6C13.6,7.3,13.7,6.6,14,6z"/>
<path d="M14.5,11H6v2h12v-0.1C16.4,12.8,15.3,12.1,14.5,11z"/>
<path d="M18.5,4.4c-2,0-3.6,1.6-3.6,3.6s1.6,3.6,3.6,3.6S22.1,10,22.1,8S20.4,4.4,18.5,4.4z M18.5,10.9c-1.6,0-2.9-1.3-2.9-2.9
	s1.3-2.9,2.9-2.9s2.9,1.3,2.9,2.9S20,10.9,18.5,10.9z M19.7,6.2l-1.3,1.3l-1.3-1.3l-0.5,0.5L17.9,8l-1.3,1.3l0.5,0.5l1.3-1.3
	l1.3,1.3l0.5-0.5L19,8l1.3-1.3L19.7,6.2z"/>
</svg>
